<svg xmlns="http://www.w3.org/2000/svg" version="1.1" xmlns:xlink="http://www.w3.org/1999/xlink" xmlns:svgjs="http://svgjs.com/svgjs" width="1440" height="560" preserveAspectRatio="none" viewBox="0 0 1440 560"><g mask="url(&quot;#SvgjsMask1118&quot;)" fill="none"><rect width="1440" height="560" x="0" y="0" fill="#0e2a47"></rect><path d="M802.46 118.32L797.36 130.06 784.78 127.67 779.68 139.42 767.1 137.02 762.01 148.77 749.43 146.37M798.72 111.24L793.62 122.99 781.04 120.6 775.94 132.34 763.36 129.95 758.26 141.7 745.68 139.3" stroke="#e73635" stroke-width="1.93"></path><rect width="185.92" height="185.92" clip-path="url(&quot;#SvgjsClipPath1119&quot;)" x="129.94" y="374.72" fill="url(#SvgjsPattern1120)" transform="rotate(205.18, 222.9, 467.68)"></rect><path d="M376.36 378.19 L318.06 341.57L303.7965115036385 403.29348849636153z" fill="#e73635"></path><path d="M1412.88 355.85L1402.4 348.49 1407.28 336.65 1396.8 329.29 1401.69 317.45 1391.21 310.09 1396.09 298.25M1420.56 353.61L1410.08 346.25 1414.96 334.41 1404.48 327.05 1409.37 315.21 1398.89 307.85 1403.77 296.01" stroke="rgba(191, 173, 67, 1)" stroke-width="1" stroke-dasharray="2, 2"></path><path d="M832.56 55.78L826.79 67.21 814.37 64.09 808.6 75.52 796.18 72.4 790.41 83.83 777.99 80.71" stroke="#037b0b" stroke-width="1"></path><rect width="318.6" height="318.6" clip-path="url(&quot;#SvgjsClipPath1121&quot;)" x="1038.22" y="285.34" fill="url(#SvgjsPattern1122)" transform="rotate(310.79, 1197.52, 444.64)"></rect><rect width="142.20000000000002" height="142.20000000000002" clip-path="url(&quot;#SvgjsClipPath1123&quot;)" x="-40.45" y="12.14" fill="url(#SvgjsPattern1124)" transform="rotate(302.48, 30.65, 83.24)"></rect><path d="M1389.75 347.81L1398.04 338.05 1409.38 344 1417.68 334.24 1429.02 340.19 1437.31 330.43 1448.65 336.38" stroke="rgba(191, 173, 67, 1)" stroke-width="2.19"></path><rect width="177.60000000000002" height="177.60000000000002" clip-path="url(&quot;#SvgjsClipPath1125&quot;)" x="1147.34" y="150.92" fill="url(#SvgjsPattern1126)" transform="rotate(150.13, 1236.14, 239.72)"></rect><circle r="46.666666666666664" cx="454.25" cy="125.21" fill="#037b0b"></circle><rect width="123.4" height="123.4" clip-path="url(&quot;#SvgjsClipPath1127&quot;)" x="396.09" y="-12.58" fill="url(#SvgjsPattern1128)" transform="rotate(198.8, 457.79, 49.12)"></rect><path d="M1346.05 124.71 L1460.78 202.77L1320.4866912764573 246.66830872354254z" stroke="#e73635" stroke-width="1" stroke-dasharray="4, 4"></path></g><defs><mask id="SvgjsMask1118"><rect width="1440" height="560" fill="#ffffff"></rect></mask><pattern x="0" y="0" width="13.28" height="13.28" patternUnits="userSpaceOnUse" id="SvgjsPattern1120"><path d="M6.64 1L6.64 12.28M1 6.64L12.28 6.64" stroke="rgba(191, 173, 67, 1)" fill="none" stroke-width="5.05"></path></pattern><clipPath id="SvgjsClipPath1119"><circle r="46.48" cx="222.9" cy="467.68"></circle></clipPath><pattern x="0" y="0" width="10.62" height="10.62" patternUnits="userSpaceOnUse" id="SvgjsPattern1122"><path d="M5.31 1L5.31 9.62M1 5.31L9.62 5.31" stroke="#037b0b" fill="none" stroke-width="3.29"></path></pattern><clipPath id="SvgjsClipPath1121"><circle r="79.65" cx="1197.52" cy="444.64"></circle></clipPath><pattern x="0" y="0" width="7.9" height="7.9" patternUnits="userSpaceOnUse" id="SvgjsPattern1124"><path d="M0 7.9L3.95 0L7.9 7.9" stroke="rgba(191, 173, 67, 1)" fill="none"></path></pattern><clipPath id="SvgjsClipPath1123"><circle r="35.550000000000004" cx="30.65" cy="83.24"></circle></clipPath><pattern x="0" y="0" width="8.88" height="8.88" patternUnits="userSpaceOnUse" id="SvgjsPattern1126"><path d="M0 8.88L4.44 0L8.88 8.88" stroke="#e73635" fill="none"></path></pattern><clipPath id="SvgjsClipPath1125"><circle r="44.400000000000006" cx="1236.14" cy="239.72"></circle></clipPath><pattern x="0" y="0" width="12.34" height="12.34" patternUnits="userSpaceOnUse" id="SvgjsPattern1128"><path d="M0 12.34L6.17 0L12.34 12.34" stroke="#e73635" fill="none"></path></pattern><clipPath id="SvgjsClipPath1127"><circle r="30.85" cx="457.79" cy="49.12"></circle></clipPath></defs></svg>