<svg xmlns="http://www.w3.org/2000/svg" viewBox="0 0 500 500">
    <path fill="#ebebeb" d="M416.78 398.49h33.12v.25h-33.12zM322.53 401.21h8.69v.25h-8.69zM396.59 389.21h19.19v.25h-19.19zM52.46 390.89h43.19v.25H52.46zM104.56 390.89h6.33v.25h-6.33zM131.47 395.11h93.68v.25h-93.68zM238.4 337.8H45.3a5.71 5.71 0 0 1-5.71-5.71V60.66A5.71 5.71 0 0 1 45.3 55h193.1a5.71 5.71 0 0 1 5.71 5.71v271.38a5.71 5.71 0 0 1-5.71 5.71zM45.3 55.2a5.47 5.47 0 0 0-5.46 5.46v271.43a5.47 5.47 0 0 0 5.46 5.46h193.1a5.47 5.47 0 0 0 5.46-5.46V60.66a5.47 5.47 0 0 0-5.46-5.46zM454.7 337.8H261.6a5.71 5.71 0 0 1-5.71-5.71V60.66A5.71 5.71 0 0 1 261.6 55h193.1a5.71 5.71 0 0 1 5.71 5.71v271.38a5.71 5.71 0 0 1-5.71 5.71zM261.6 55.2a5.47 5.47 0 0 0-5.46 5.46v271.43a5.47 5.47 0 0 0 5.46 5.46h193.1a5.47 5.47 0 0 0 5.46-5.46V60.66a5.47 5.47 0 0 0-5.46-5.46zM0 382.4h500v.25H0z"/>
    <path fill="#ebebeb" d="M324.11 125.99H432v256.08H324.11z"/>
    <path fill="#f0f0f0" d="M328.7 130.63h98.72v251.45H328.7z"/>
    <path fill="#fafafa" d="M336.17 140.86h39.57v106.06h-39.57zM380.9 140.86h39.57v106.06H380.9zM336.17 283.73h84.3v92.09h-84.3z"/>
    <path fill="#ebebeb" d="M337.43 252.65h9.34v24.34h-9.34z"/>
    <path fill="#e0e0e0" d="M348.61 277h-1.84v-24.34h1.84zM343.69 262.22a3.94 3.94 0 1 1-3.94-3.94 3.94 3.94 0 0 1 3.94 3.94zM340.91 269.03h2.03v4.93h-2.03z"/>
    <path d="M352.52 262.22c0 1.33-11.63 2.42-13 2.42a2.42 2.42 0 0 1 0-4.84c1.37 0 13 1.08 13 2.42z" fill="#f0f0f0"/>
    <path fill="#f5f5f5" d="M85.66 93.05l-11.99 17.06v121.67h93.51V93.05H85.66z"/>
    <path d="M85.66 93.05l-12 17.06s-.51 3.75 8.49 6.5c.01 0-3.99-15.25 3.51-23.56zM154.92 91.754l4.581-4.582 13.082 13.081-4.582 4.582zM67.997 224.355l4.582-4.582 13.081 13.081-4.582 4.582zM159.493 237.441l-4.582-4.582 13.082-13.081 4.582 4.582z" fill="#ebebeb"/>
    <path fill="#e0e0e0" d="M93.24 116.59h3.68v3.68h-3.68z"/>
    <path fill="#e0e0e0" d="M96.92 120.26h-7.35v3.68h11.01v-3.68h-3.66z"/>
    <path fill="#ebebeb" d="M104.26 116.59h3.68v3.68h-3.68z"/>
    <path fill="#ebebeb" d="M107.94 120.26h-7.36v3.68h11.02v-3.68h-3.66z"/>
    <path fill="#e0e0e0" d="M96.92 123.94H85.89v3.67h14.69v-3.67h-3.66z"/>
    <path fill="#e0e0e0" d="M96.92 127.61h-7.35v3.68h11.01v-3.68h-3.66z"/>
    <path fill="#ebebeb" d="M107.94 127.61h-7.36v3.68h11.02v-3.68h-3.66z"/>
    <path fill="#e0e0e0" d="M96.92 131.29H93.24v3.67h7.34v-3.67h-3.66z"/>
    <path fill="#ebebeb" d="M104.26 131.29h-3.68v3.67h7.36v-3.67h-3.68z"/>
    <path fill="#e0e0e0" d="M96.91 134.96h3.68v3.68h-3.68z"/>
    <path fill="#ebebeb" d="M100.58 134.96h3.68v3.68h-3.68zM111.6 123.94h-11.02v3.67h14.7v-3.67h-3.68z"/>
    <path fill="#e0e0e0" d="M84.06 140.36h1.84v1.84h-1.84z"/>
    <path fill="#e0e0e0" d="M85.9 142.2h-3.68v1.84h5.51v-1.84H85.9z"/>
    <path fill="#ebebeb" d="M89.57 140.36h1.84v1.84h-1.84z"/>
    <path fill="#ebebeb" d="M91.41 142.2h-3.68v1.84h5.51v-1.84h-1.83z"/>
    <path fill="#e0e0e0" d="M85.9 144.04h-5.51v1.84h7.34v-1.84H85.9zM85.9 145.88h-3.68v1.84h5.51v-1.84H85.9z"/>
    <path fill="#ebebeb" d="M91.41 145.88h-3.68v1.84h5.51v-1.84h-1.83z"/>
    <path fill="#e0e0e0" d="M85.9 147.72h-1.84v1.83h3.67v-1.83H85.9z"/>
    <path fill="#ebebeb" d="M89.57 147.72h-1.84v1.83h3.68v-1.83h-1.84z"/>
    <path fill="#e0e0e0" d="M85.89 149.55h1.84v1.84h-1.84z"/>
    <path fill="#ebebeb" d="M87.73 149.55h1.84v1.84h-1.84zM93.24 144.04h-5.51v1.84h7.35v-1.84h-1.84z"/>
    <path fill="#e0e0e0" d="M104.35 147.72h1.15v1.15h-1.15z"/>
    <path fill="#e0e0e0" d="M105.5 148.86h-2.3v1.15H106.64v-1.15h-1.14z"/>
    <path fill="#ebebeb" d="M107.79 147.72h1.15v1.15h-1.15z"/>
    <path fill="#ebebeb" d="M108.94 148.86h-2.3v1.15H110.08v-1.15h-1.14z"/>
    <path fill="#e0e0e0" d="M105.5 150.01H102.05v1.15H106.64v-1.15h-1.14zM105.5 151.16h-2.3v1.15H106.64v-1.15h-1.14z"/>
    <path fill="#ebebeb" d="M108.94 151.16h-2.3v1.15H110.08v-1.15h-1.14z"/>
    <path fill="#e0e0e0" d="M105.5 152.31h-1.15v1.15h2.29v-1.15h-1.14z"/>
    <path fill="#ebebeb" d="M107.79 152.31h-1.15v1.15h2.3v-1.15h-1.15z"/>
    <path fill="#e0e0e0" d="M105.49 153.46h1.15v1.15h-1.15z"/>
    <path fill="#ebebeb" d="M106.64 153.46h1.15v1.15h-1.15zM110.08 150.01h-3.44v1.15h4.59v-1.15h-1.15zM139.45 136c0 5-4.06 3.94-9.07 3.94s-9.06 1.06-9.06-3.94a9.07 9.07 0 1 1 18.13 0z"/>
    <path d="M133.89 137.24c0-.51-1.57-.92-3.51-.92s-3.5.41-3.5.92l-.9 6.82c0 .64 2 1.16 4.4 1.16s4.41-.52 4.41-1.16z" fill="#e0e0e0"/>
    <path d="M121.5 134.18a4 4 0 0 0 4.87-6.29 9.09 9.09 0 0 0-4.87 6.29zM139.44 135.72a9 9 0 0 0-3.42-6.8 4 4 0 0 0 2.77 6.87 3.5 3.5 0 0 0 .65-.07z" fill="#f5f5f5"/>
    <path d="M152.41 126.72c-1.22 3.47-3.78 1.74-7.25.52s-6.54-1.49-5.31-4.95a6.66 6.66 0 1 1 12.56 4.43z" fill="#ebebeb"/>
    <path d="M148.26 126.21c.12-.35-.86-1-2.21-1.49s-2.53-.58-2.65-.22l-2.29 4.5c-.16.44 1.08 1.28 2.77 1.87s3.18.72 3.33.28z" fill="#e0e0e0"/>
    <path d="M140.42 121.07a2.93 2.93 0 0 0 5.17-.71 3 3 0 0 0-.25-2.47 6.68 6.68 0 0 0-4.92 3.18zM152.47 126.52a6.67 6.67 0 0 0-.7-5.55 2.92 2.92 0 0 0 .24 5.43 2.39 2.39 0 0 0 .46.12z" fill="#f5f5f5"/>
    <path d="M142 152.93a13.86 13.86 0 0 0-12.39 7.65l1.39 2.1h2.78l1.88 2.08H138l1.62 1.83 2.46.22-3.46.62-.78 1.52-2.85.31-1.33 1.79h-2.46l-1.51 2A13.88 13.88 0 1 0 142 152.93z" fill="#fafafa"/>
    <path d="M143.51 158.82a2.21 2.21 0 1 1-4.25 1.23zM139.14 159.61a2.21 2.21 0 1 1 4.25-1.23zM126.43 166.29h-1.29V165a.9.9 0 0 0-.91-.9.9.9 0 0 0-.9.9v1.3H122a.9.9 0 0 0-.9.9.9.9 0 0 0 .9.91h1.3v1.29a.9.9 0 0 0 .9.91.91.91 0 0 0 .91-.91v-1.3h1.29a.91.91 0 0 0 .91-.91.9.9 0 0 0-.88-.9zM113.89 166.29h-1.3V165a.9.9 0 0 0-.9-.9.9.9 0 0 0-.91.9v1.3h-1.29a.9.9 0 0 0-.91.9.91.91 0 0 0 .91.91h1.29v1.29a.91.91 0 0 0 .91.91.9.9 0 0 0 .9-.91v-1.3h1.3a.9.9 0 0 0 .9-.91.9.9 0 0 0-.9-.9zM101.34 166.29h-1.29V165a.9.9 0 0 0-.91-.9.9.9 0 0 0-.9.9v1.3h-1.3a.9.9 0 0 0-.9.9.9.9 0 0 0 .9.91h1.3v1.29a.9.9 0 0 0 .9.91.91.91 0 0 0 .91-.91v-1.3h1.29a.91.91 0 0 0 .91-.91.9.9 0 0 0-.91-.9z" fill="#e0e0e0"/>
    <path fill="#ebebeb" d="M110 183.81h6.41v38.71H110z"/>
    <path fill="#ebebeb" d="M118.7 222.78h-11.41l2.71-2.04h6.42l2.28 2.04z"/>
    <path fill="#e0e0e0" d="M133.57 222.82h-2.06l.02-1.77 2.04 1.77zM131.53 184.19l-.02 38.63-12.81-.04-2.28-2.04v-36.62l15.11.07z"/>
    <g>
        <ellipse cx="245.18" cy="412.39" rx="193.89" ry="11.32" fill="#f5f5f5"/>
    </g>
    <g>
        <path fill="#407bff" d="M203.46 92.35h87.52v93.76h-87.52z"/>
        <path fill="#fff" opacity=".9" d="M206.72 95.61h81.01v87.26h-81.01z"/>
        <path d="M215.78 90.46h-1.29a3.53 3.53 0 0 0 0 7.05h1.29a3.53 3.53 0 0 0 0-7.05z" fill="#407bff"/>
        <path d="M215.78 90.46h-1.29a3.53 3.53 0 0 0 0 7.05h1.29a3.53 3.53 0 0 0 0-7.05z" fill="#fff" opacity=".3"/>
        <path d="M218 94a3.53 3.53 0 1 1-3.53-3.52A3.53 3.53 0 0 1 218 94z" opacity=".2"/>
        <path d="M290.54 115.82h-1.28a3.53 3.53 0 1 0 0 7.05h1.28a3.53 3.53 0 1 0 0-7.05z" fill="#407bff"/>
        <path d="M290.54 115.82h-1.28a3.53 3.53 0 1 0 0 7.05h1.28a3.53 3.53 0 1 0 0-7.05z" fill="#fff" opacity=".3"/>
        <path d="M292.78 119.34a3.53 3.53 0 1 1-3.52-3.52 3.53 3.53 0 0 1 3.52 3.52z" opacity=".2"/>
        <path d="M209.12 100.17v80.48h44.18v-80.48zm35.45.54h8.18v8.18h-8.18zm0 8.9h8.18v8.18h-8.18zm0 8.9h8.18v8.19h-8.18zm0 8.9h8.18v8.19h-8.18zm0 8.9h8.18v8.19h-8.18zm0 8.91h8.18v8.18h-8.18zm0 8.9h8.18v8.18h-8.18zm0 8.9h8.18v8.18h-8.18zm-26.73 8.18h-8.18V163h8.18zm0-8.9h-8.18v-8.18h8.18zm0-8.9h-8.18v-8.18h8.18zm0-8.9h-8.18v-8.19h8.18zm0-8.9h-8.18v-8.19h8.18zm0-8.9h-8.18v-8.19h8.18zm0-8.91h-8.18v-8.18h8.18zm8.73 53.41h-8.18V163h8.18zm8.73-52.69v8.19h-8.19v-8.19zm0 8.9v8.19h-8.19v-8.19zm0 8.9v8.19h-8.19v-8.19zm0 8.91v8.18h-8.19v-8.18zm0 8.9v8.18h-8.19v-8.18zm0-36.33h-8.19v-8.18h8.19zm-8.73 0h-8.18v-8.18h8.18zm0 8.91h-8.18v-8.19h8.18zm0 8.9h-8.18v-8.19h8.18zm0 8.9h-8.18v-8.19h8.18zm0 8.9h-8.18v-8.18h8.18zm0 8.9h-8.18v-8.18h8.18zm.54.72h8.19v8.18h-8.19zm8.73 0H244v8.18h-8.19zm0-8.9H244v8.18h-8.19zm0-8.9H244v8.18h-8.19zm0-8.91H244v8.19h-8.19zm0-8.9H244v8.19h-8.19zm0-8.9H244v8.19h-8.19zm0-8.9H244v8.18h-8.19zm0-8.9H244v8.18h-8.19zm-8.73 0h8.19v8.18h-8.19zm-8.72 0h8.18v8.18h-8.18zm-8.73 0h8.18v8.18h-8.18zm8.18 79.39h-8.18v-8.18h8.18zm8.73 0h-8.18v-8.18h8.18zm8.73 0h-8.19v-8.18h8.19zm8.73 0h-8.19v-8.18H244zm8.72 0h-8.18v-8.18h8.18z" fill="#407bff"/>
        <path d="M209.12 100.17v80.48h44.18v-80.48zm35.45.54h8.18v8.18h-8.18zm0 8.9h8.18v8.18h-8.18zm0 8.9h8.18v8.19h-8.18zm0 8.9h8.18v8.19h-8.18zm0 8.9h8.18v8.19h-8.18zm0 8.91h8.18v8.18h-8.18zm0 8.9h8.18v8.18h-8.18zm0 8.9h8.18v8.18h-8.18zm-26.73 8.18h-8.18V163h8.18zm0-8.9h-8.18v-8.18h8.18zm0-8.9h-8.18v-8.18h8.18zm0-8.9h-8.18v-8.19h8.18zm0-8.9h-8.18v-8.19h8.18zm0-8.9h-8.18v-8.19h8.18zm0-8.91h-8.18v-8.18h8.18zm8.73 53.41h-8.18V163h8.18zm8.73-52.69v8.19h-8.19v-8.19zm0 8.9v8.19h-8.19v-8.19zm0 8.9v8.19h-8.19v-8.19zm0 8.91v8.18h-8.19v-8.18zm0 8.9v8.18h-8.19v-8.18zm0-36.33h-8.19v-8.18h8.19zm-8.73 0h-8.18v-8.18h8.18zm0 8.91h-8.18v-8.19h8.18zm0 8.9h-8.18v-8.19h8.18zm0 8.9h-8.18v-8.19h8.18zm0 8.9h-8.18v-8.18h8.18zm0 8.9h-8.18v-8.18h8.18zm.54.72h8.19v8.18h-8.19zm8.73 0H244v8.18h-8.19zm0-8.9H244v8.18h-8.19zm0-8.9H244v8.18h-8.19zm0-8.91H244v8.19h-8.19zm0-8.9H244v8.19h-8.19zm0-8.9H244v8.19h-8.19zm0-8.9H244v8.18h-8.19zm0-8.9H244v8.18h-8.19zm-8.73 0h8.19v8.18h-8.19zm-8.72 0h8.18v8.18h-8.18zm-8.73 0h8.18v8.18h-8.18zm8.18 79.39h-8.18v-8.18h8.18zm8.73 0h-8.18v-8.18h8.18zm8.73 0h-8.19v-8.18h8.19zm8.73 0h-8.19v-8.18H244zm8.72 0h-8.18v-8.18h8.18z" fill="#fff" opacity=".5"/>
        <path fill="#263238" d="M233.44 113.56h-4.08l.63-7.48h2.82l.63 7.48z"/>
        <path fill="#fff" opacity=".5" d="M233.44 113.56h-4.08l.63-7.48h2.82l.63 7.48z"/>
        <path fill="#407bff" d="M232.99 111.11h-3.18l-1.15-6.59h5.47l-1.14 6.59z"/>
        <path fill="#fff" opacity=".5" d="M232.99 111.11h-3.18l-1.15-6.59h5.47l-1.14 6.59z"/>
        <path fill="#407bff" d="M229.24 101.37h4.32l.57 3.15h-5.47l.58-3.15z"/>
        <path fill="#fff" opacity=".3" d="M229.24 101.37h4.32l.57 3.15h-5.47l.58-3.15z"/>
        <path fill="#407bff" d="M225.9 128.41h10.99l.48 7.11h-11.95l.48-7.11z"/>
        <path fill="#fff" opacity=".3" d="M225.9 128.41h10.99l.48 7.11h-11.95l.48-7.11z"/>
        <path fill="#407bff" d="M229.49 151.89h-4.39l-.6 7.7.61 14.97h2.48l2.5-16.24-.6-6.43z"/>
        <path fill="#fff" opacity=".3" d="M229.49 151.89h-4.39l-.6 7.7.61 14.97h2.48l2.5-16.24-.6-6.43z"/>
        <path fill="#407bff" d="M225.42 135.52l-.32 16.37h4.39l1.91-16.37h-5.98z"/>
        <path fill="#fff" opacity=".5" d="M225.42 135.52l-.32 16.37h4.39l1.91-16.37h-5.98z"/>
        <path fill="#407bff" d="M233.39 151.89h4.38l.6 7.7-.61 14.97h-2.47l-2.5-16.24.6-6.43z"/>
        <path fill="#fff" opacity=".3" d="M233.39 151.89h4.38l.6 7.7-.61 14.97h-2.47l-2.5-16.24.6-6.43z"/>
        <path fill="#407bff" d="M237.45 135.52l.32 16.37h-4.38l-1.92-16.37h5.98z"/>
        <path fill="#fff" opacity=".5" d="M237.45 135.52l.32 16.37h-4.38l-1.92-16.37h5.98z"/>
        <path fill="#407bff" d="M236.89 128.41H225.9l-1.11-16.02h13.22l-1.12 16.02z"/>
        <path fill="#fff" opacity=".3" d="M236.89 128.41H225.9l-1.11-16.02h13.22l-1.12 16.02z"/>
        <path fill="#fff" opacity=".3" d="M225.9 128.41l5.5-8.01 5.49 8.01H225.9z"/>
        <path fill="#263238" d="M220.87 177.63l4.24-3.07h2.48l-1.44 4.89-5.28-1.82z"/>
        <path fill="#fff" opacity=".5" d="M220.87 177.63l4.24-3.07h2.48l-1.44 4.89-5.28-1.82z"/>
        <path fill="#263238" d="M220.87 177.63h5.28v1.81h-5.28z"/>
        <path fill="#fff" opacity=".3" d="M220.87 177.63h5.28v1.81h-5.28z"/>
        <path fill="#263238" d="M242 177.63l-4.24-3.07h-2.47l1.43 4.89 5.28-1.82z"/>
        <path fill="#fff" opacity=".5" d="M242 177.63l-4.24-3.07h-2.47l1.43 4.89 5.28-1.82z"/>
        <path fill="#263238" d="M242 179.45h-5.28v-1.81H242z"/>
        <path fill="#fff" opacity=".3" d="M242 179.45h-5.28v-1.81H242z"/>
        <path fill="#407bff" d="M222.97 124.88h-3.14l2.54-12.49h3.78l-3.18 12.49z"/>
        <path fill="#263238" d="M222.97 124.88h-3.14l-.81 4.17-.24 7.94h2.75l1.37-7.94.07-4.17zM221.53 136.99h-2.75l-.42 3.01.93 1.46 1.76-.75.92-1.37-.44-2.35z"/>
        <path fill="#fff" opacity=".5" d="M222.97 124.88h-3.14l2.54-12.49h3.78l-3.18 12.49z"/>
        <path fill="#fff" opacity=".6" d="M222.97 124.88h-3.14l-.81 4.17-.24 7.94h2.75l1.37-7.94.07-4.17z"/>
        <path fill="#fff" opacity=".5" d="M221.53 136.99h-2.75l-.42 3.01.93 1.46 1.76-.75.92-1.37-.44-2.35z"/>
        <path fill="#263238" d="M226.5 116.58h-4.3l-.63-4.85h5.57l-.64 4.85z"/>
        <path fill="#263238" d="M221.57 111.73l-2.79 4.85 2.09.96 1.33-.96-.63-4.85z"/>
        <path fill="#fff" opacity=".5" d="M226.5 116.58h-4.3l-.63-4.85h5.57l-.64 4.85z"/>
        <path fill="#fff" opacity=".6" d="M221.57 111.73l-2.79 4.85 2.09.96 1.33-.96-.63-4.85z"/>
        <path fill="#407bff" d="M239.44 124.88h3.15l-2.55-12.49h-3.78l3.18 12.49z"/>
        <path fill="#fff" opacity=".5" d="M239.44 124.88h3.15l-2.55-12.49h-3.78l3.18 12.49z"/>
        <path fill="#263238" d="M239.44 124.88h3.15l.8 4.17.24 7.94h-2.74l-1.38-7.94-.07-4.17z"/>
        <path fill="#fff" opacity=".6" d="M239.44 124.88h3.15l.8 4.17.24 7.94h-2.74l-1.38-7.94-.07-4.17z"/>
        <path fill="#263238" d="M240.89 136.99h2.74l.42 3.01-.93 1.46-1.75-.75-.93-1.37.45-2.35z"/>
        <path fill="#fff" opacity=".5" d="M240.89 136.99h2.74l.42 3.01-.93 1.46-1.75-.75-.93-1.37.45-2.35z"/>
        <path fill="#263238" d="M235.9 116.58h4.3l.63-4.85h-5.57l.64 4.85z"/>
        <path fill="#fff" opacity=".5" d="M235.9 116.58h4.3l.63-4.85h-5.57l.64 4.85z"/>
        <path fill="#263238" d="M240.83 111.73l2.79 4.85-2.09.96-1.33-.96.63-4.85z"/>
        <path fill="#fff" opacity=".6" d="M240.83 111.73l2.79 4.85-2.09.96-1.33-.96.63-4.85z"/>
        <g opacity=".9" fill="#263238">
            <path d="M276.87 112.36h4.82v1.37h-4.82zM259.84 112.36h4.38v1.37h-4.38zM266.83 112.36h5.15v1.37h-5.15zM272.77 112.36h3.25v1.37h-3.25z"/>
        </g>
        <g opacity=".9" fill="#263238">
            <path d="M259.84 109.34h4.38v1.37h-4.38zM266.83 109.34h2.54v1.37h-2.54zM275.3 109.34h4.38v1.37h-4.38zM270.15 109.34h4.38v1.37h-4.38zM266.83 115.37h3.51v1.37h-3.51zM271.19 115.37h4.82v1.37h-4.82zM276.87 115.37h3.45v1.37h-3.45zM259.84 115.37h4.38v1.37h-4.38z"/>
        </g>
        <g opacity=".3" fill="#fff">
            <g opacity=".9">
                <path d="M276.87 112.36h4.82v1.37h-4.82zM259.84 112.36h4.38v1.37h-4.38zM266.83 112.36h5.15v1.37h-5.15zM272.77 112.36h3.25v1.37h-3.25z"/>
            </g>
            <g opacity=".9">
                <path d="M259.84 109.34h4.38v1.37h-4.38zM266.83 109.34h2.54v1.37h-2.54zM275.3 109.34h4.38v1.37h-4.38zM270.15 109.34h4.38v1.37h-4.38zM266.83 115.37h3.51v1.37h-3.51zM271.19 115.37h4.82v1.37h-4.82zM276.87 115.37h3.45v1.37h-3.45zM259.84 115.37h4.38v1.37h-4.38z"/>
            </g>
        </g>
        <path fill="#407bff" d="M263.37 131.97h66.07v41.53h-66.07z"/>
        <path fill="#fff" opacity=".9" d="M266.39 134.98h60.04v35.5h-60.04z"/>
        <path d="M307.68 158.62h-9.31a4.55 4.55 0 0 1-4.24-2.93l-1.94-5.12 1.76-.67 1.94 5.13a2.66 2.66 0 0 0 2.48 1.71h9.31z" fill="#263238"/>
        <path fill="#263238" d="M301.32 150.24l-1.01 4.12h1.72l2.36-4.12h-3.07z"/>
        <g opacity=".2" fill="#fff">
            <path d="M307.68 158.62h-9.31a4.55 4.55 0 0 1-4.24-2.93l-1.94-5.12 1.76-.67 1.94 5.13a2.66 2.66 0 0 0 2.48 1.71h9.31z"/>
            <path d="M301.32 150.24l-1.01 4.12h1.72l2.36-4.12h-3.07z"/>
        </g>
        <path fill="#263238" d="M316.9 165.12h-7.81l-4.7-14.88h7.81l4.7 14.88z"/>
        <path fill="#fff" opacity=".4" d="M316.9 165.12h-7.81l-4.7-14.88h7.81l4.7 14.88z"/>
        <path d="M311.53 163.55a1.06 1.06 0 0 1-1-.74l-2.23-7.07a1.06 1.06 0 0 1 1-1.38 1 1 0 0 1 1 .74l2.24 7.07a1.07 1.07 0 0 1-1.01 1.38z" fill="#407bff"/>
        <path fill="#263238" d="M317.84 167.81h-9.69l.94-2.69h7.81l.94 2.69z"/>
        <path fill="#fff" opacity=".7" d="M317.84 167.81h-9.69l.94-2.69h7.81l.94 2.69z"/>
        <path fill="#263238" d="M274.87 142.18h2.14v7.12h-2.14z"/>
        <path fill="#fff" opacity=".2" d="M274.87 142.18h2.14v7.12h-2.14z"/>
        <path fill="#263238" d="M277.02 137.65v3.14h5.02v-1.45l-3.01-1.69h-2.01z"/>
        <path fill="#fff" opacity=".7" d="M277.02 137.65v3.14h5.02v-1.45l-3.01-1.69h-2.01z"/>
        <path fill="#263238" d="M277.02 140.79h33.9v7.09h-33.9z"/>
        <path fill="#fff" opacity=".6" d="M277.02 140.79h33.9v7.09h-33.9z"/>
        <path fill="#263238" d="M277.02 147.88h38.93v3.54h-38.93z"/>
        <path fill="#fff" opacity=".4" d="M277.02 147.88h38.93v3.54h-38.93z"/>
        <path fill="#263238" d="M315.95 147.88h-5.03v-7.09l5.03 2.82v4.27z"/>
        <path fill="#fff" opacity=".7" d="M315.95 147.88h-5.03v-7.09l5.03 2.82v4.27z"/>
        <path fill="#407bff" d="M282.46 146.26h-1.64l.94-3.45h1.64l-.94 3.45zM285.05 146.26h-1.65l.94-3.45h1.65l-.94 3.45zM287.63 146.26h-1.64l.94-3.45h1.64l-.94 3.45zM290.21 146.26h-1.64l.94-3.45h1.64l-.94 3.45zM314 147.88a5.11 5.11 0 1 1-5.1-5.1 5.1 5.1 0 0 1 5.1 5.1z"/>
        <path d="M314 147.88a5.11 5.11 0 1 1-5.1-5.1 5.1 5.1 0 0 1 5.1 5.1z" fill="#fff" opacity=".5"/>
        <path d="M311.7 147.88a2.79 2.79 0 1 1-2.78-2.78 2.79 2.79 0 0 1 2.78 2.78z" fill="#407bff"/>
        <path fill="#fff" opacity=".9" d="M309.56 146.324l.898.898-2.227 2.227-.898-.898z"/>
        <path d="M275.52 129.94h-1.29a3.53 3.53 0 0 0 0 7.05h1.29a3.53 3.53 0 0 0 0-7.05z" fill="#407bff"/>
        <path d="M275.52 129.94h-1.29a3.53 3.53 0 0 0 0 7.05h1.29a3.53 3.53 0 0 0 0-7.05z" fill="#fff" opacity=".3"/>
        <path d="M277.75 133.46a3.52 3.52 0 1 1-3.52-3.52 3.52 3.52 0 0 1 3.52 3.52z" opacity=".2"/>
        <path d="M321.71 129.94h-1.29a3.53 3.53 0 0 0 0 7.05h1.29a3.53 3.53 0 0 0 0-7.05z" fill="#407bff"/>
        <path d="M321.71 129.94h-1.29a3.53 3.53 0 0 0 0 7.05h1.29a3.53 3.53 0 0 0 0-7.05z" fill="#fff" opacity=".3"/>
        <path d="M324 133.46a3.53 3.53 0 1 1-3.53-3.52 3.53 3.53 0 0 1 3.53 3.52z" opacity=".2"/>
    </g>
    <g>
        <path d="M395.07 414.9h-1.34a1.86 1.86 0 0 1-1.86-1.86V287.3h5.06v125.74a1.86 1.86 0 0 1-1.86 1.86z" fill="#407bff"/>
        <path d="M395.07 414.9h-1.34a1.86 1.86 0 0 1-1.86-1.86V287.3h5.06v125.74a1.86 1.86 0 0 1-1.86 1.86z" fill="#fff" opacity=".3"/>
        <path d="M393.32 392.25v2a1.53 1.53 0 0 1-1.53 1.53h-88v-5.11h88.04a1.53 1.53 0 0 1 1.49 1.58z" fill="#407bff"/>
        <path d="M393.32 392.25v2a1.53 1.53 0 0 1-1.53 1.53h-88v-5.11h88.04a1.53 1.53 0 0 1 1.49 1.58z" fill="#fff" opacity=".4"/>
        <path d="M305.6 414.9h-1.34a1.86 1.86 0 0 1-1.86-1.86V287.3h5.06v125.74a1.86 1.86 0 0 1-1.86 1.86z" fill="#407bff"/>
        <path opacity=".2" d="M391.88 287.3h5.06v4.56h-5.06zM302.41 287.3h5.06v4.56h-5.06z"/>
        <path fill="#407bff" d="M396.93 287.3H187.64v-8.68h209.29z"/>
        <path fill="#fff" opacity=".3" d="M396.93 287.3H187.64v-8.68h209.29z"/>
        <path opacity=".1" d="M396.94 287.3h-95.25v-8.68h95.25z"/>
        <path fill="#407bff" d="M407.78 279.25H176.8v-5.42h230.98z"/>
        <path fill="#fff" opacity=".5" d="M407.78 279.25H176.8v-5.42h230.98z"/>
        <path opacity=".2" d="M407.79 279.25h-106.1v-5.42h106.1z"/>
        <path d="M307.47 287.3h-5.06v125.58a2 2 0 0 0 2 2h1a2 2 0 0 0 2-2" fill="#fff" opacity=".3"/>
        <path d="M280.9 414.9h-1.34a1.86 1.86 0 0 1-1.86-1.86V287.3h5.06v125.74a1.86 1.86 0 0 1-1.86 1.86z" fill="#407bff"/>
        <path d="M280.9 414.9h-1.34a1.86 1.86 0 0 1-1.86-1.86V287.3h5.06v125.74a1.86 1.86 0 0 1-1.86 1.86z" fill="#fff" opacity=".3"/>
        <path d="M279.15 392.25v2a1.53 1.53 0 0 1-1.53 1.53h-88v-5.06h88.04a1.53 1.53 0 0 1 1.49 1.53z" fill="#407bff"/>
        <path d="M279.15 392.25v2a1.53 1.53 0 0 1-1.53 1.53h-88v-5.06h88.04a1.53 1.53 0 0 1 1.49 1.53z" fill="#fff" opacity=".4"/>
        <path d="M191.43 414.9h-1.34a1.86 1.86 0 0 1-1.86-1.86V287.3h5.06v125.74a1.86 1.86 0 0 1-1.86 1.86z" fill="#407bff"/>
        <path opacity=".2" d="M277.7 287.3h5.06v4.56h-5.06zM188.23 287.3h5.06v4.56h-5.06z"/>
        <path d="M193.29 287.3h-5.06v125.58a2 2 0 0 0 2 2h1a2 2 0 0 0 2-2" fill="#fff" opacity=".3"/>
    </g>
    <g>
        <path fill="#263238" d="M346.67 325.94h39.46v88.97h-39.46z"/>
        <path fill="#fff" opacity=".3" d="M346.67 325.94h39.46v88.97h-39.46z"/>
        <path fill="#263238" d="M313.91 325.94h39.46v88.97h-39.46z"/>
        <path fill="#fff" opacity=".7" d="M313.91 325.94h39.46v88.97h-39.46z"/>
        <path fill="#fff" opacity=".4" d="M338.61 351.59h-9.93l-14.77-25.65h39.47l-14.77 25.65zM338.61 363.12h-9.93l-14.77 51.78h39.47l-14.77-51.78z"/>
        <path fill="#fff" opacity=".7" d="M328.68 351.59h9.92v11.53h-9.92z"/>
        <path d="M333.65 361.13a3.57 3.57 0 0 1-2.53-6.09l1 .95a2.22 2.22 0 0 0 0 3.14 2.28 2.28 0 0 0 3.13 0 2.22 2.22 0 0 0 0-3.14l1-.95a3.55 3.55 0 0 1 0 5 3.52 3.52 0 0 1-2.6 1.09z" fill="#407bff"/>
        <path fill="#407bff" d="M332.97 353.58h1.36v3.32h-1.36z"/>
    </g>
    <g>
        <path fill="#263238" d="M238.44 268.1h33.63v6.55H204.8v-3.33l33.64-3.22z"/>
        <path fill="#fff" opacity=".7" d="M238.44 268.1h33.63v6.55H204.8v-3.33l33.64-3.22z"/>
        <path opacity=".5" d="M238.44 274.65h33.63v-6.55l-33.63 3.22v3.33z"/>
        <path fill="#263238" d="M214.05 253.33h4.56v17.53h-4.56z"/>
        <path fill="#fff" opacity=".3" d="M214.05 253.33h4.56v17.53h-4.56z"/>
        <path d="M221.69 267.33H211a3.5 3.5 0 0 0-1.35.27l-8.53 3.48a3.57 3.57 0 0 0-2.23 3.31h34.91a3.57 3.57 0 0 0-2.23-3.31L223 267.6a3.5 3.5 0 0 0-1.31-.27z" fill="#263238"/>
        <path d="M221.69 267.33H211a3.5 3.5 0 0 0-1.35.27l-8.53 3.48a3.57 3.57 0 0 0-2.23 3.31h34.91a3.57 3.57 0 0 0-2.23-3.31L223 267.6a3.5 3.5 0 0 0-1.31-.27z" fill="#fff" opacity=".5"/>
        <path opacity=".1" d="M214.05 253.33h4.56v6.43h-4.56z"/>
        <path fill="#263238" d="M182.99 206.43h66.68v49.24h-66.68z"/>
        <path fill="#fff" opacity=".5" d="M182.99 206.43h66.68v49.24h-66.68z"/>
        <path fill="#263238" d="M249.67 255.66l2.42-2.17V208.6l-2.42-2.17v49.23z"/>
        <path fill="#fff" opacity=".3" d="M249.67 255.66l2.42-2.17V208.6l-2.42-2.17v49.23z"/>
        <path fill="#407bff" d="M185.7 209.14h61.26v42.73H185.7z"/>
        <path fill="#fff" opacity=".4" d="M185.7 209.14h61.26v42.73H185.7z"/>
        <path d="M221.67 234.37a2 2 0 0 1-3.42-1.2c-.35-3.77-.89-6-.1-8a5.5 5.5 0 0 1 10.19 4.12z" fill="#407bff"/>
        <path d="M221.67 233.45a2 2 0 0 1-3.42-1.2c-.35-3.77-.89-6-.1-8a5.5 5.5 0 0 1 10.19 4.12z" fill="#407bff"/>
        <path d="M221.67 233.45a2 2 0 0 1-3.42-1.2c-.35-3.77-.89-6-.1-8a5.5 5.5 0 0 1 10.19 4.12z" fill="#fff" opacity=".3"/>
        <path d="M241.81 234.37a2 2 0 0 0 3.42-1.2c.35-3.77.88-6 .1-8a5.5 5.5 0 0 0-10.19 4.12z" fill="#407bff"/>
        <path d="M241.6 233.45a2 2 0 0 0 3.41-1.2c.36-3.77.89-6 .1-8a5.49 5.49 0 0 0-10.18 4.12z" fill="#fff" opacity=".3"/>
        <path fill="#407bff" d="M223.24 226.91h16.65v4.63h-16.65z"/>
        <path fill="#fff" opacity=".3" d="M223.24 226.91h16.65v4.63h-16.65z"/>
        <path fill="#407bff" d="M223.24 221.15h16.65v7.95h-16.65z"/>
        <path fill="#fff" opacity=".6" d="M223.24 221.15h16.65v7.95h-16.65z"/>
        <path d="M228.34 228.39a5.5 5.5 0 1 1-3-7.15 5.49 5.49 0 0 1 3 7.15z" fill="#407bff"/>
        <path d="M228.34 228.39a5.5 5.5 0 1 1-3-7.15 5.49 5.49 0 0 1 3 7.15z" fill="#fff" opacity=".7"/>
        <path d="M226.46 226.27a3.25 3.25 0 1 1-3.25-3.25 3.25 3.25 0 0 1 3.25 3.25z" fill="#407bff"/>
        <path d="M226.46 226.27a3.25 3.25 0 1 1-3.25-3.25 3.25 3.25 0 0 1 3.25 3.25z" opacity=".3"/>
        <path d="M234.82 228.39a5.5 5.5 0 1 0 3-7.15 5.49 5.49 0 0 0-3 7.15z" fill="#407bff"/>
        <path d="M234.82 228.39a5.5 5.5 0 1 0 3-7.15 5.49 5.49 0 0 0-3 7.15z" fill="#fff" opacity=".7"/>
        <path fill="#407bff" d="M230.12 223.9h2.89v.85h-2.89zM238.39 225.11a.88.88 0 1 1-1-.69.88.88 0 0 1 1 .69zM240.47 224.61a.88.88 0 1 1-1.72.34.88.88 0 0 1 1.72-.34zM238.93 227.86a.88.88 0 0 1-.7 1 .89.89 0 0 1-1-.69.88.88 0 0 1 .7-1 .89.89 0 0 1 1 .69zM241 227.37a.87.87 0 0 1-.69 1 .88.88 0 0 1-.34-1.72.88.88 0 0 1 1.03.72zM242.58 224.17a.88.88 0 1 1-1.72.33.89.89 0 0 1 .69-1 .88.88 0 0 1 1.03.67zM243.12 226.92a.88.88 0 1 1-1.72.33.88.88 0 0 1 1.72-.33z"/>
        <path d="M225.14 226.25a1.93 1.93 0 1 1-1.93-1.93 1.92 1.92 0 0 1 1.93 1.93z" fill="#407bff" opacity=".3"/>
        <path fill="#263238" d="M188.39 214.57h27.93v32.36h-27.93z"/>
        <path fill="#fff" opacity=".5" d="M188.39 214.57h27.93v32.36h-27.93z"/>
        <path d="M189.2 216.93h26.31v28.86H189.2z"/>
        <path fill="#407bff" d="M192.62 220.03h3.9v1.22h-3.9zM197.21 220.03h3.9v1.22h-3.9zM206.4 220.03h3.9v1.22h-3.9zM207.8 222.72h4.3v1.22h-4.3zM199.16 225.4h2.81v1.22h-2.81zM202.74 225.4h4.3v1.22h-4.3zM207.8 225.4h3.08v1.22h-3.08zM197.68 230.77H203v1.22h-5.32zM203.76 230.77h3.28v1.22h-3.28zM203.71 236.14h4.3v1.22h-4.3zM208.77 236.14h3.32v1.22h-3.32zM192.62 241.51h4.3v1.22h-4.3zM196.52 222.72h6.86v1.22h-6.86zM196.9 228.08h5.07v1.22h-5.07zM207.8 230.77h4.3v1.22h-4.3zM196.7 233.45h4.3v1.22h-4.3zM201.76 233.45h4.3v1.22h-4.3zM192.62 236.14h4.3v1.22h-4.3zM202.74 238.82h3.32v1.22h-3.32zM206.82 238.82h5.28v1.22h-5.28zM197.68 241.51h5.28v1.22h-5.28z"/>
        <g opacity=".5" fill="#fff">
            <path d="M196.52 222.72h6.86v1.22h-6.86zM196.9 228.08h5.07v1.22h-5.07zM207.8 230.77h4.3v1.22h-4.3zM196.7 233.45h4.3v1.22h-4.3zM201.76 233.45h4.3v1.22h-4.3zM192.62 236.14h4.3v1.22h-4.3zM202.74 238.82h3.32v1.22h-3.32zM206.82 238.82h5.28v1.22h-5.28zM197.68 241.51h5.28v1.22h-5.28z"/>
        </g>
        <path fill="#407bff" d="M201.81 220.03h3.9v1.22h-3.9zM204.14 222.72h2.9v1.22h-2.9zM192.62 225.4h5.79v1.22h-5.79zM202.74 228.08h5.24v1.22h-5.24zM208.74 228.08h3.36v1.22h-3.36zM192.62 230.77h4.3v1.22h-4.3zM206.82 233.45h4.3v1.22h-4.3zM197.68 236.14h5.28v1.22h-5.28zM198.65 238.82h3.32v1.22h-3.32zM203.71 241.51h4.3v1.22h-4.3z"/>
        <g opacity=".4">
            <path d="M201.81 220.03h3.9v1.22h-3.9zM204.14 222.72h2.9v1.22h-2.9zM192.62 225.4h5.79v1.22h-5.79zM202.74 228.08h5.24v1.22h-5.24zM208.74 228.08h3.36v1.22h-3.36zM192.62 230.77h4.3v1.22h-4.3zM206.82 233.45h4.3v1.22h-4.3zM197.68 236.14h5.28v1.22h-5.28zM198.65 238.82h3.32v1.22h-3.32zM203.71 241.51h4.3v1.22h-4.3z"/>
        </g>
        <path fill="#407bff" d="M208.77 241.51h2.35v1.22h-2.35z"/>
        <path fill="#263238" d="M351.24 253.33h4.56v17.53h-4.56z"/>
        <path fill="#fff" opacity=".3" d="M351.24 253.33h4.56v17.53h-4.56z"/>
        <path d="M358.88 267.33h-10.72a3.5 3.5 0 0 0-1.35.27l-8.53 3.48a3.57 3.57 0 0 0-2.23 3.31H371a3.57 3.57 0 0 0-2.23-3.31l-8.53-3.48a3.5 3.5 0 0 0-1.36-.27z" fill="#263238"/>
        <path d="M358.88 267.33h-10.72a3.5 3.5 0 0 0-1.35.27l-8.53 3.48a3.57 3.57 0 0 0-2.23 3.31H371a3.57 3.57 0 0 0-2.23-3.31l-8.53-3.48a3.5 3.5 0 0 0-1.36-.27z" fill="#fff" opacity=".5"/>
        <path opacity=".1" d="M351.24 253.33h4.56v6.43h-4.56z"/>
        <path fill="#263238" d="M320.18 206.43h66.68v49.24h-66.68z"/>
        <path fill="#fff" opacity=".5" d="M320.18 206.43h66.68v49.24h-66.68z"/>
        <path fill="#263238" d="M386.86 255.66l2.42-2.17V208.6l-2.42-2.17v49.23z"/>
        <path fill="#fff" opacity=".3" d="M386.86 255.66l2.42-2.17V208.6l-2.42-2.17v49.23z"/>
        <path fill="#407bff" d="M322.89 209.14h61.26v42.73h-61.26z"/>
        <path fill="#fff" opacity=".6" d="M322.89 209.14h61.26v42.73h-61.26z"/>
        <path d="M377.48 209h-54.72v43h61.53v-43zm-6.81.27h6.54v6.85h-6.54zm6.54 14h-6.54v-6.87h6.54zm0 7.12h-6.54v-6.85h6.54zm0 7.12h-6.54v-6.85h6.54zm0 7.12h-6.54v-6.85h6.54zm-47.37-6.85h6.53v6.85h-6.53zm0-7.12h6.53v6.85h-6.53zm0-7.12h6.53v6.85h-6.53zm0-7.12h6.53v6.85h-6.53zm40.56 6.85h-6.53v-6.87h6.53zm0 7.12h-6.53v-6.85h6.53zm0 7.12h-6.53v-6.85h6.53zm-33.76-6.85h6.54v6.85h-6.54zm0-7.12h6.54v6.85h-6.54zm27 6.85h-6.54v-6.85h6.54zm-6.81 0h-6.54v-6.85h6.54zm-6.81 0h-6.53v-6.85H350zm-6.53.27H350v6.85h-6.53zm6.8 0h6.54v6.85h-6.54zm6.81 0h6.54v6.85h-6.54zm6.54-7.39h-6.54v-6.87h6.54zm-6.81 0h-6.54v-6.87h6.54zm-6.81 0h-6.53v-6.87H350zm-6.8 0h-6.54v-6.87h6.54zm-6.54 14.51h6.54v6.85h-6.54zm6.81 0H350v6.85h-6.53zm6.8 0h6.54v6.85h-6.54zm6.81 0h6.54v6.85h-6.54zm6.81 0h6.53v6.85h-6.53zm0-28.49h6.53v6.85h-6.53zm-6.81 0h6.54v6.85h-6.54zm-6.81 0h6.54v6.85h-6.54zm-6.8 0H350v6.85h-6.53zm-6.81 0h6.54v6.85h-6.54zm-6.8 0h6.53v6.85h-6.53zm-6.81 0h6.53v6.85H323zm0 7.13h6.53v6.85H323zm0 7.12h6.53v6.85H323zm0 7.12h6.53v6.85H323zm0 7.12h6.53v6.85H323zm6.53 14H323v-6.85h6.53zm6.81 0h-6.53v-6.85h6.53zm6.81 0h-6.54v-6.85h6.54zm6.8 0h-6.53v-6.85H350zm6.81 0h-6.54v-6.85h6.54zm6.81 0h-6.54v-6.85h6.54zm6.8 0h-6.53v-6.85h6.53zm6.81 0h-6.54v-6.85h6.54zm6.81 0h-6.54v-6.85H384zm0-7.12h-6.54v-6.85H384zm0-7.12h-6.54v-6.85H384zm0-7.12h-6.54v-6.85H384zm0-7.12h-6.54v-6.9H384zm-6.54-7.13v-6.85H384v6.85z" fill="#407bff"/>
        <path d="M374.64 214.15h-8.54l-2 3.44h-4.18v-1.87H344.2v9.34h-5.12a4 4 0 1 0 0 7.91h5.12v10.31h8.54v6.25h4.61v.07h7.1V245h-7.1v-1.71h2.58v-17.78h4.18l2 3.44h8.54l4.27-7.4z" fill="#fff"/>
        <path d="M364.86 250H357v-.07h-4.61v-6.25h-8.59v-10.3h-4.72a4.37 4.37 0 1 1 0-8.73h4.72v-9.33h16.53v1.87h3.55l2-3.44h9l4.51 7.8-4.51 7.8h-9l-2-3.43h-3.55v17.77h-2.57v.89h7.1zm-7.1-.82H364v-3.78h-7v-2.53h2.57V225.1h4.83l2 3.44h8.07l4-7-4-7h-8.07l-2 3.44h-4.83v-1.87h-14.96v9.33h-5.53a3.56 3.56 0 0 0 0 7.11h5.53v10.3h8.54v6.25h4.61z" fill="#263238"/>
        <path d="M357.76 238h-3.93v-9.81h3.93zm-3.12-.82H357V229h-2.31zM372.64 224h-4.48v-4.48h4.48zm-3.66-.82h2.85v-2.85H369z" fill="#263238"/>
        <path fill="#407bff" d="M348.47 221.8l-.81-4.02 6.46 4.02h-5.65z"/>
        <path fill="#fff" opacity=".7" d="M348.47 221.8l-.81-4.02 6.46 4.02h-5.65z"/>
        <path fill="#407bff" d="M348.47 221.8l-.81 4.02 6.46-4.02h-5.65z"/>
        <path opacity=".3" d="M348.47 221.8l-.81 4.02 6.46-4.02h-5.65z"/>
        <path fill="#263238" d="M326.19 239.26h23.31v10.02h-23.31z"/>
        <path fill="#fff" opacity=".5" d="M326.19 239.26h23.31v10.02h-23.31z"/>
        <path d="M326.87 241.23h21.96v7.1h-21.96z"/>
        <path fill="#407bff" d="M329.77 242.88h3.26v1.02h-3.26zM334.97 242.88h1.89v1.02h-1.89zM341.28 242.88h3.26v1.02h-3.26zM342.44 245.12h3.59v1.02h-3.59zM329.77 245.12h3.26v1.02h-3.26zM334.97 245.12h3.83v1.02h-3.83zM337.44 242.88h3.26v1.02h-3.26zM339.39 245.12h2.42v1.02h-2.42z"/>
        <path fill="#263238" d="M279.15 249.65h5.43v20.86h-5.43z"/>
        <path fill="#263238" d="M279.15 249.65h5.43v20.86h-5.43z"/>
        <path d="M288.24 266.31h-12.76a4.24 4.24 0 0 0-1.61.32l-10.15 4.13a4.28 4.28 0 0 0-2.65 3.95h41.58a4.28 4.28 0 0 0-2.65-3.95l-10.15-4.13a4.24 4.24 0 0 0-1.61-.32z" fill="#263238"/>
        <path opacity=".1" d="M279.15 249.65h5.43v5.91h-5.43z"/>
        <path fill="#263238" d="M242.18 193.83h79.36v58.59h-79.36z"/>
        <path fill="#fff" opacity=".2" d="M242.18 193.83h79.36v58.59h-79.36z"/>
        <path fill="#263238" d="M321.54 252.42l3.09-2.58v-53.43l-3.09-2.58v58.59z"/>
        <path fill="#407bff" d="M295.23 213.78h-26.74l-22.87-15.98h72.48l-22.87 15.98z"/>
        <path fill="#fff" opacity=".3" d="M295.23 213.78h-26.74l-22.87-15.98h72.48l-22.87 15.98z"/>
        <path fill="#407bff" d="M295.23 232.47h-26.74l-22.87 15.97h72.48l-22.87-15.97z"/>
        <path fill="#fff" opacity=".5" d="M295.23 232.47h-26.74l-22.87 15.97h72.48l-22.87-15.97z"/>
        <path fill="#407bff" d="M295.23 232.47v-18.69l22.87-15.98v50.64l-22.87-15.97z"/>
        <path fill="#fff" opacity=".2" d="M295.23 232.47v-18.69l22.87-15.98v50.64l-22.87-15.97z"/>
        <path fill="#407bff" d="M268.49 232.47v-18.69l-22.87-15.98v50.64l22.87-15.97z"/>
        <path fill="#fff" opacity=".2" d="M268.49 232.47v-18.69l-22.87-15.98v50.64l22.87-15.97z"/>
        <path fill="#407bff" d="M268.49 213.78h26.75v18.69h-26.75z"/>
        <path fill="#fff" opacity=".7" d="M268.49 213.78h26.75v18.69h-26.75z"/>
        <path d="M318.1 248.44v-4.59c-2.17-1.74-5.22-3.46-7-1.3a7.55 7.55 0 0 0-2 5.89z" fill="#407bff"/>
        <path d="M306.63 248.44H311l1.88-6.66a24.07 24.07 0 0 0-10.17-7.59c-6.53-2.48-5.12 8.47-3.07 10.37 1.16 1.05 4.36 2.66 6.99 3.88z" fill="#ff8b7b"/>
        <path fill="#263238" d="M308.48 248.44l-1.41-12.83h-2.98l-1.42 12.83h5.81z"/>
        <path fill="#fff" opacity=".2" d="M308.48 248.44l-1.41-12.83h-2.98l-1.42 12.83h5.81z"/>
        <path fill="#263238" d="M305.75 248.44l-1.41-12.83h-2.98l-1.41 12.83h5.8z"/>
        <path fill="#fff" opacity=".4" d="M305.75 248.44l-1.41-12.83h-2.98l-1.41 12.83h5.8z"/>
        <path d="M302.6 234.93s1.42.94 2 5.93-1.36 5.12-2.71 4.51-2.26-1-2.26-1-2.25-10.59 2.97-9.44zM307.21 248.18l.53.26h1.5l-.75-9.24s-3.52-3.33-3.86 1.66 2.58 7.32 2.58 7.32z" fill="#ff8b7b"/>
        <path fill="#263238" d="M311.34 228.56l-13.86-7.01h-3.62l-1.19 3.89v3.12l11.82 9.97h8.54v-4.44l-1.69-5.53z"/>
        <path fill="#fff" opacity=".5" d="M311.34 228.56l-13.86-7.01h-3.62l-1.19 3.89v3.12l11.82 9.97h8.54v-4.44l-1.69-5.53z"/>
        <path opacity=".3" d="M311.34 228.56h-5.15l-1.7 5.53v4.44h8.54v-4.44l-1.69-5.53z"/>
        <path opacity=".1" d="M310.6 229.99h-3.68l-1.21 3.94v1h6.1v-1l-1.21-3.94z"/>
        <path fill="#407bff" d="M306.92 229.99l-1.21 3.94v.31h5.41v-1.01l-1-3.24h-3.2z"/>
        <path opacity=".2" d="M306.92 229.99l-1.21 3.94v.31h5.41v-1.01l-1-3.24h-3.2z"/>
        <path fill="#fff" opacity=".5" d="M306.19 228.56h5.15l-13.86-7.01h-3.62l12.33 7.01z"/>
        <path opacity=".2" d="M292.67 225.44v3.12l11.82 9.97v-4.44l-11.82-8.65z"/>
        <path fill="#407bff" d="M296.41 227.48l.99-3.24.54.31-1.01 3.3-.52-.37zM295.38 226.72l.95-3.09.54.31-.98 3.16-.51-.38zM294.35 225.97l.9-2.95.54.3-.93 3.03-.51-.38z"/>
        <path fill="#263238" d="M297.45 221.06l-1.1-2.22h-.56l-.5 1.63v1.31l1.63.75h.78v-.65l-.25-.82z"/>
        <path fill="#fff" opacity=".5" d="M297.45 221.06l-1.1-2.22h-.56l-.5 1.63v1.31l1.63.75h.78v-.65l-.25-.82z"/>
        <path opacity=".2" d="M297.45 221.06h-.28l-.25.82v.65h.78v-.65l-.25-.82z"/>
        <path fill="#fff" opacity=".5" d="M297.17 221.06h.28l-1.1-2.22h-.56l1.38 2.22z"/>
        <path d="M287.72 222.72h-2a3.85 3.85 0 0 0-3.41-3.42v-2h-.82v2a3.85 3.85 0 0 0-3.41 3.42h-2v.81h2a3.83 3.83 0 0 0 3.41 3.41V229h.82v-2.05a3.83 3.83 0 0 0 3.41-3.41h2zm-5.45 3.68v-1.92h-.82v1.92a3.31 3.31 0 0 1-2.87-2.87h1.92v-.81h-1.92a3.29 3.29 0 0 1 2.87-2.87v1.91h.82v-1.91a3.29 3.29 0 0 1 2.87 2.87h-1.92v.81h1.92a3.31 3.31 0 0 1-2.87 2.87z" fill="#407bff"/>
        <path d="M287.72 222.72h-2a3.85 3.85 0 0 0-3.41-3.42v-2h-.82v2a3.85 3.85 0 0 0-3.41 3.42h-2v.81h2a3.83 3.83 0 0 0 3.41 3.41V229h.82v-2.05a3.83 3.83 0 0 0 3.41-3.41h2zm-5.45 3.68v-1.92h-.82v1.92a3.31 3.31 0 0 1-2.87-2.87h1.92v-.81h-1.92a3.29 3.29 0 0 1 2.87-2.87v1.91h.82v-1.91a3.29 3.29 0 0 1 2.87 2.87h-1.92v.81h1.92a3.31 3.31 0 0 1-2.87 2.87z" opacity=".2"/>
        <g opacity=".9" fill="#fff">
            <path d="M262.6 204.3h2.89v.82h-2.89zM252.4 204.3h2.62v.82h-2.62zM256.59 204.3h3.09v.82h-3.09zM260.14 204.3h1.95v.82h-1.95z"/>
        </g>
        <g opacity=".9" fill="#fff">
            <path d="M252.4 202.5h2.62v.82h-2.62zM256.59 202.5h1.52v.82h-1.52zM261.67 202.5h2.62v.82h-2.62zM258.58 202.5h2.62v.82h-2.62zM256.59 206.11h2.1v.82h-2.1zM259.2 206.11h2.89v.82h-2.89zM262.6 206.11h2.07v.82h-2.07zM252.4 206.11h2.62v.82h-2.62z"/>
        </g>
    </g>
    <g>
        <path d="M179.08 193.38s8.85 2.54 8.65-2.65-7.67.22-9.65-1.15 1 3.8 1 3.8z" fill="#263238"/>
        <path d="M179.08 193.38s8.85 2.54 8.65-2.65-7.67.22-9.65-1.15 1 3.8 1 3.8z" opacity=".6"/>
        <path fill="#ff8b7b" d="M214.82 386.69l-1.06 19.44-7.05.54-1.86-19.86 9.97-.12z"/>
        <path d="M215 406.05a.18.18 0 0 1-.16-.14.18.18 0 0 1 .07-.19c.12-.08 2.69-1.79 4-1.53a.93.93 0 0 1 .6.38.68.68 0 0 1 .07.79c-.28.44-1.26.68-2.21.75a13.28 13.28 0 0 1-2.37-.06zm.57-.28c1.44.07 3.37-.07 3.69-.6.05-.06.09-.18-.06-.39a.48.48 0 0 0-.38-.23 1 1 0 0 0-.35 0 8.2 8.2 0 0 0-2.87 1.22z" fill="#407bff"/>
        <path d="M214.93 406.05a.17.17 0 0 1-.09-.16c0-.1.06-2.18 1-3.05a1.3 1.3 0 0 1 1-.38c.5 0 .68.25.71.46.22.85-1.5 2.65-2.39 3.12h-.2zm1.78-3.24a.93.93 0 0 0-.61.27 4.26 4.26 0 0 0-.85 2.43c.91-.63 2-2 1.94-2.54 0 0-.05-.17-.37-.18h-.11z" fill="#407bff"/>
        <path d="M214.17 405l-8.38.59a.68.68 0 0 0-.62.57l-1 6.92a1.14 1.14 0 0 0 .94 1.29h.24c3-.26 5.69-.62 9.44-.88 4.44-.31 3.35.3 8.57 0 3.15-.18 3.47-3.79 2.13-3.87-6.15-.34-6.92-2.14-9.42-4.15a2.68 2.68 0 0 0-1.9-.47z" fill="#263238"/>
        <path opacity=".1" d="M214.11 399.67l-8.05.03-.74-7.84 9.22-.12-.43 7.93z"/>
        <path d="M139.06 301.05s-4.12 20.41 13 24.21 49-.32 49-.32-3.63 11.08 4.3 70.92h9.49s8.83-67.26 3.09-77.74-40.27-15.48-78.88-17.07z" fill="#407bff"/>
        <path d="M139.06 301.05s-4.12 20.41 13 24.21 49-.32 49-.32-3.63 11.08 4.3 70.92h9.49s8.83-67.26 3.09-77.74-40.27-15.48-78.88-17.07z" fill="#407bff"/>
        <path d="M217.21 317a8.11 8.11 0 0 1 .72 1.08c2.91 5.32 2.07 25.25.54 43.6-7.11-22.32-6.69-28-6.69-28s-4.69-.3-11.51-.67c.18-6.29.78-8.15.78-8.15s10.85-10.32 16.16-7.86z" opacity=".2"/>
        <path fill="#407bff" d="M215.81 393.24l-.53 3.77-10.42.01-.52-3.61 11.47-.17z"/>
        <path fill="#fff" opacity=".3" d="M215.81 393.24l-.53 3.77-10.42.01-.52-3.61 11.47-.17z"/>
        <path fill="#ff8b7b" d="M245.27 405.05l-6.35 1.22-2.52-8.66-2.39-8.19-1.09-3.77 9.34-2.4.4 2.93 1.31 9.5 1.3 9.37z"/>
        <path d="M246.09 405.62a.19.19 0 0 1-.14-.16.19.19 0 0 1 .1-.18c.13-.06 2.91-1.41 4.16-1a1 1 0 0 1 .55.46.71.71 0 0 1 0 .8 3.35 3.35 0 0 1-2.3.43 13.32 13.32 0 0 1-2.37-.35zm.61-.2c1.41.27 3.35.39 3.74-.09.05-.05.11-.16 0-.4a.49.49 0 0 0-.34-.27 1 1 0 0 0-.35-.07 8.25 8.25 0 0 0-3.05.83z" fill="#407bff"/>
        <path d="M246 405.61a.22.22 0 0 1-.07-.17c0-.1.36-2.16 1.4-2.89a1.35 1.35 0 0 1 1-.25c.5.09.64.35.64.56.11.88-1.85 2.41-2.79 2.76h-.08a.2.2 0 0 1-.1-.01zm2.21-3a.93.93 0 0 0-.64.19 4.26 4.26 0 0 0-1.18 2.28c1-.5 2.29-1.72 2.28-2.24 0-.05 0-.18-.35-.23z" fill="#407bff"/>
        <path d="M245.38 404.5l-8.38-.57a.68.68 0 0 0-.69.49l-2 6.71a1.12 1.12 0 0 0 .75 1.4.85.85 0 0 0 .23 0c3 .15 5.72.17 9.48.43 4.44.3 3.28.75 8.49 1.18 3.14.25 4-3.28 2.63-3.55-6-1.18-6.56-3.06-8.76-5.4a2.66 2.66 0 0 0-1.75-.69z" fill="#263238"/>
        <path opacity=".1" d="M244.15 395.64l-.18.04-7.57 1.93-2.39-8.19 8.65-3.24.03-.01 1.46 9.47z"/>
        <path d="M144.31 302.3s-2.2 22.82 15.37 22.43 53.93 1.95 53.93 1.95-.9 11.63 21.06 67.86l9.21-2.25s-6.46-69.72-14.52-78.53-47.17-19.1-85.05-11.46z" fill="#407bff"/>
        <path fill="#407bff" d="M244.74 389.45l.42 4.13-11.19 2.73-1.51-3.7 12.28-3.16z"/>
        <path fill="#fff" opacity=".3" d="M244.74 389.45l.42 4.13-11.19 2.73-1.51-3.7 12.28-3.16z"/>
        <path d="M185.45 203.44l3.33 4.68a4.29 4.29 0 0 1-3.83.58z" fill="#ff5652"/>
        <path d="M184.27 200a.32.32 0 0 0 .28-.12 2.57 2.57 0 0 1 2.09-1.08.33.33 0 0 0 .35-.3.33.33 0 0 0-.3-.35 3.21 3.21 0 0 0-2.66 1.33.33.33 0 0 0 .06.46.32.32 0 0 0 .18.06zM187.27 202.67c0 .62-.26 1.15-.67 1.18s-.8-.49-.82-1.09.25-1.16.66-1.18.78.42.83 1.09z" fill="#1a2e35"/>
        <path d="M163 200c.16 8.31 0 11.85 4.06 16.28 6.22 4.6 16.22 4.66 18.55-3.55 2.1-7.38 1.49-19.71-6.5-23.4A11.36 11.36 0 0 0 163 200z" fill="#ff8b7b"/>
        <path d="M175.67 219.4v-.41c.08-.91.88-2.62 1.77-2.42l3.56 1.83a11 11 0 0 1-5.33 1z" fill="#1a2e35" opacity=".2"/>
        <path fill="#ff8b7b" d="M175.87 217.29l-2.26 12.48-11.49-1.54 3.72-12.85 10.03 1.91z"/>
        <path d="M175.6 224.46l3.89-2.24s-12.44-4.06-17.79-2.51-3 4-3 4z" fill="#407bff"/>
        <path d="M175.6 224.46l3.89-2.24s-12.44-4.06-17.79-2.51-3 4-3 4z" opacity=".3"/>
        <path d="M161.5 242s5.44 20.7 7.54 22.71c1.35 1.3 25-1.43 25-1.43l6.57-2.32a3.3 3.3 0 0 1 3.23.61c2 1.71 5.31 4.8 5.42 6.62a3.14 3.14 0 0 1-1.61 2.34c-1.35.38-5.12-2.31-5.12-2.31l-8.57.75s-21.29 6.4-27.53 5.79c-7.24-.71-13.91-26.81-13.91-26.81z" fill="#ff8b7b"/>
        <path d="M161.5 242s5.44 20.7 7.54 22.71c1.35 1.3 25-1.43 25-1.43l6.57-2.32a3.3 3.3 0 0 1 3.23.61c2 1.71 5.31 4.8 5.42 6.62a3.14 3.14 0 0 1-1.61 2.34c-1.35.38-5.12-2.31-5.12-2.31l-8.57.75s-21.29 6.4-27.53 5.79c-7.24-.71-13.91-26.81-13.91-26.81z" opacity=".1"/>
        <path d="M153.16 226.73s6.16.73 10.73 21.18a27.44 27.44 0 0 0-10.24 5.73s-3.65-9.33-4-14.43c-.48-6.8 3.51-12.48 3.51-12.48z" fill="#407bff"/>
        <path d="M153.16 226.73s6.16.73 10.73 21.18a27.44 27.44 0 0 0-10.24 5.73s-3.65-9.33-4-14.43c-.48-6.8 3.51-12.48 3.51-12.48z" opacity=".3"/>
        <path d="M186.63 230.25s-6.65 46.49-7.41 70.6c0 0-15.19 1.76-41 2.15 0 0-3.94-75.15 20.45-79.26 22.75-3.84 27.96 6.51 27.96 6.51z" fill="#407bff"/>
        <path d="M186.63 230.25s-6.25 39.64-7 63.76c0 0-15-.39-40.76 0 0 0-4.57-66.16 19.82-70.27 22.73-3.84 27.94 6.51 27.94 6.51z" opacity=".3"/>
        <path d="M180.14 234.68l4.81 8c-.5 3.81-1.07 8.29-1.65 13.11a45 45 0 0 1-4.43-21z" opacity=".2"/>
        <path d="M188 232s9.9 21.78 12.39 23.56c1.61 1.15 20.31-.71 20.31-.71s5.91-4.55 8.22-4.29c2.73.31 7.82 4.44 8.37 7.13a3.36 3.36 0 0 1-1.32 2.68c-1.36.6-4.21-1.6-5.69-1.64-2.26-.06-6.62 1.49-8.81 2.07-7.08 1.86-15.73 5.33-22.32 5.63-7.66.34-19.65-26.88-19.65-26.88z" fill="#ff8b7b"/>
        <path d="M181 225.46s6.52-.22 14.49 20.35a28.92 28.92 0 0 0-9.75 7.58s-5.27-9.14-6.44-14.39c-1.57-7 1.7-13.54 1.7-13.54z" fill="#407bff"/>
        <path d="M181 225.46s6.52-.22 14.49 20.35a28.92 28.92 0 0 0-9.75 7.58s-5.27-9.14-6.44-14.39c-1.57-7 1.7-13.54 1.7-13.54z" opacity=".3"/>
        <path d="M173.52 216.84a16.13 16.13 0 0 0 6-11.05 33.66 33.66 0 0 0 1.37-4.94 49.42 49.42 0 0 0 .1-7.8 2.26 2.26 0 0 0 2.62-2.3s.93-4.27-1.73-7.21-4.6 2-4.6 2-2.25-5.59-4.74-4.74-2.27 4.34-2.27 4.34-6-3.18-7.31-.58 1.73 4.2 1.73 4.2-6.79-.31-6.18 2.55a3 3 0 0 0 3 2.72s-3.48 0-3.69 2.93 2.57 1.68 3 5.28c.36 3.22 1.14 8.17 3.83 12.55a2.87 2.87 0 0 0 2.48 1.38 29.87 29.87 0 0 1 6.39.67z" fill="#263238"/>
        <path d="M180.06 202.47a6.36 6.36 0 0 1-.16 4.9c-.94 2-2.06 1.57-3.24-.21-1.06-1.6-1.84-4.59-.19-6.07s2.83-.56 3.59 1.38z" fill="#ff8b7b"/>
        <path d="M176.79 188.93c-1.15-2.45-2.94-5.56-5.61-7.19 0 0-3.22 2.26-3.52 2.32-.15-.14 4.3 3.61 5.42 6.43a35.4 35.4 0 0 1 2 10.8l3.81-.89a25.55 25.55 0 0 0-2.1-11.47z" fill="#407bff"/>
        <path d="M176.79 188.93c-1.15-2.45-2.94-5.56-5.61-7.19 0 0-3.22 2.26-3.52 2.32-.15-.14 4.3 3.61 5.42 6.43a35.4 35.4 0 0 1 2 10.8l3.81-.89a25.55 25.55 0 0 0-2.1-11.47z" style="isolation:isolate" opacity=".3"/>
        <path d="M181.32 197.55a7.18 7.18 0 1 1-7.89 12c-1.85-1.07-3.44-5.5-1.26-8.8s5.83-5.37 9.15-3.2z" fill="#407bff"/>
        <path d="M182.22 200c2 1.35 2.19 4.49.5 7s-4.64 3.58-6.62 2.29-1.6-4.53.08-7.08 4.08-3.55 6.04-2.21z" style="isolation:isolate" opacity=".3"/>
        <path fill="#263238" d="M175.21 204.81l8.47-1.04-.49 1.16-7.43 1.03-.55-1.15zM128 394c6.63-1.09 16.46-2.63 20.83-3 1-.07 2.17-.12 3.5-.16v-34h8.33v34c1.32 0 2.53.09 3.49.16 4.38.33 14.21 1.87 20.84 3a7.9 7.9 0 0 1 6.61 7.8v1.72h-8.07l-1.09-2.42s-15.17-2.63-20.29-3a101.78 101.78 0 0 0-11.32 0c-5.11.38-20.29 3-20.29 3l-1.08 2.42h-8.08v-1.72A7.9 7.9 0 0 1 128 394z"/>
        <path d="M119.08 409.21a5.7 5.7 0 1 0 5.69-5.69 5.69 5.69 0 0 0-5.69 5.69z" fill="#263238"/>
        <path d="M121.93 409.21a2.85 2.85 0 1 0 2.84-2.85 2.85 2.85 0 0 0-2.84 2.85z" fill="#fff" opacity=".5"/>
        <path d="M182.54 409.21a5.69 5.69 0 1 0 5.69-5.69 5.69 5.69 0 0 0-5.69 5.69z" fill="#263238"/>
        <path d="M185.38 409.21a2.85 2.85 0 1 0 2.85-2.85 2.86 2.86 0 0 0-2.85 2.85z" fill="#fff" opacity=".5"/>
        <path opacity=".1" d="M152.34 356.88h8.33v10.24h-8.33z"/>
        <path d="M159.62 361.76h-6.24a3.57 3.57 0 0 1-3.57-3.57v-29h13.37v29a3.57 3.57 0 0 1-3.56 3.57z" fill="#263238"/>
        <path d="M159.62 361.76h-6.24a3.57 3.57 0 0 1-3.57-3.57v-29h13.37v29a3.57 3.57 0 0 1-3.56 3.57z" fill="#fff" opacity=".3"/>
        <path opacity=".2" d="M149.82 329.15h13.37v7.94h-13.37z"/>
        <path d="M111.31 322.38A110.33 110.33 0 0 1 135.7 319c8.47-.21 40.17 0 47.69 0a110.56 110.56 0 0 1 27.22 3.39c5.59 1.43 3.87 9.49-1.18 9.59H112.8c-5.28.22-7.2-8.14-1.49-9.6z" fill="#263238"/>
        <path d="M95.45 253.16a4.76 4.76 0 0 0 4.73-4.23l1.2-10.44a4.77 4.77 0 0 1 4.74-4.22h20.15a4.77 4.77 0 0 1 4.65 3.7l2.63 11.48a4.78 4.78 0 0 0 4.65 3.71h1.56a4.75 4.75 0 0 1 4.73 4.22l7.58 65.71a4.77 4.77 0 0 1-4.74 5.31H103a4.76 4.76 0 0 1-4.73-4.22l-7.58-65.71a4.77 4.77 0 0 1 4.76-5.31z" fill="#263238"/>
        <path d="M95.45 253.16a4.76 4.76 0 0 0 4.73-4.23l1.2-10.44a4.77 4.77 0 0 1 4.74-4.22h20.15a4.77 4.77 0 0 1 4.65 3.7l2.63 11.48a4.78 4.78 0 0 0 4.65 3.71h1.56a4.75 4.75 0 0 1 4.73 4.22l7.58 65.71a4.77 4.77 0 0 1-4.74 5.31H103a4.76 4.76 0 0 1-4.73-4.22l-7.58-65.71a4.77 4.77 0 0 1 4.76-5.31z" fill="#fff" opacity=".3"/>
        <path d="M100.18 248.93l1.2-10.44a4.77 4.77 0 0 1 4.74-4.22h12.56a4.75 4.75 0 0 1 4.64 3.7l2.68 11.48a4.78 4.78 0 0 0 4.65 3.71h1.55a4.76 4.76 0 0 1 4.74 4.22l7.58 65.71a4.77 4.77 0 0 1-4.74 5.31H103a4.76 4.76 0 0 1-4.73-4.22l-7.58-65.71a4.77 4.77 0 0 1 4.74-5.31 4.76 4.76 0 0 0 4.75-4.23z" fill="#263238"/>
        <path d="M100.18 248.93l1.2-10.44a4.77 4.77 0 0 1 4.74-4.22h12.56a4.75 4.75 0 0 1 4.64 3.7l2.68 11.48a4.78 4.78 0 0 0 4.65 3.71h1.55a4.76 4.76 0 0 1 4.74 4.22l7.58 65.71a4.77 4.77 0 0 1-4.74 5.31H103a4.76 4.76 0 0 1-4.73-4.22l-7.58-65.71a4.77 4.77 0 0 1 4.74-5.31 4.76 4.76 0 0 0 4.75-4.23z" fill="#fff" opacity=".1"/>
        <path d="M208 331.79a100.14 100.14 0 0 0-49.25 0c-6.09 1.56-8.69-7.85-2.59-9.41a110.7 110.7 0 0 1 54.43 0c6.09 1.55 3.51 11-2.59 9.41z" fill="#fff" opacity=".3"/>
        <path d="M182.54 328.4a2.17 2.17 0 0 0 2.17-2.17v-24.94a2.17 2.17 0 0 0-2.17-2.17 2.17 2.17 0 0 0-2.17 2.17v24.94a2.17 2.17 0 0 0 2.17 2.17z" fill="#263238"/>
        <path d="M182.54 328.4a2.17 2.17 0 0 0 2.17-2.17v-24.94a2.17 2.17 0 0 0-2.17-2.17 2.17 2.17 0 0 0-2.17 2.17v24.94a2.17 2.17 0 0 0 2.17 2.17z" fill="#fff" opacity=".5"/>
        <path d="M182.54 299.12a2.17 2.17 0 0 1 2.17 2.17v6.46h-4.34v-6.46a2.17 2.17 0 0 1 2.17-2.17z" opacity=".2"/>
        <path d="M205.54 304h-46c-4.18 0-4.19-6.51 0-6.51h46c4.18 0 4.19 6.51 0 6.51z" fill="#263238"/>
        <path d="M205.54 304h-46c-4.18 0-4.19-6.51 0-6.51h46c4.18 0 4.19 6.51 0 6.51z" fill="#fff" opacity=".1"/>
        <path d="M205.54 304h-38.41c-4.19 0-4.2-6.51 0-6.51h38.41c4.18 0 4.19 6.51 0 6.51z" fill="#263238"/>
        <path d="M205.54 304h-38.41c-4.19 0-4.2-6.51 0-6.51h38.41c4.18 0 4.19 6.51 0 6.51z" fill="#fff" opacity=".3"/>
        <path d="M153.94 392.49h5.13l3.9 5.67-.81-.07a101.78 101.78 0 0 0-11.32 0l-.81.07z" opacity=".1"/>
        <path d="M150.7 409.21a5.7 5.7 0 1 0 5.69-5.69 5.69 5.69 0 0 0-5.69 5.69z" fill="#263238"/>
        <path d="M153.55 409.21a2.85 2.85 0 1 0 2.84-2.85 2.85 2.85 0 0 0-2.84 2.85z" fill="#fff" opacity=".5"/>
        <path fill="#263238" d="M153.94 403.04h5.13l1.08-11.64h-7.3l1.09 11.64z"/>
        <path fill="#fff" opacity=".2" d="M153.94 403.04h5.13l1.08-11.64h-7.3l1.09 11.64z"/>
    </g>
</svg>
