<svg id="Layer_1" data-name="Layer 1" xmlns="http://www.w3.org/2000/svg" height="100px" width="100%" viewBox="0 0 1920 1080"><defs><style>.cls-1{fill:#f94144;}.cls-2{fill:#90be6d;}.cls-3{fill:#577590;}.cls-4{fill:#f8961e;}.cls-5{fill:#f9c74f;}</style></defs><title>_varientArtboard 1 copy 2</title><path class="cls-1" d="M519.79,426.85V637.14a4.64,4.64,0,0,1-2.5,4.13,4.72,4.72,0,0,1-2.16.53,4.61,4.61,0,0,1-2.68-.85l-.09-.06a4.65,4.65,0,0,1-2-3.81V426.91a4.62,4.62,0,0,1,2-3.81l.07-.05a4.66,4.66,0,0,1,7.35,3.8Z"/><path class="cls-2" d="M598,405v52.72a4.61,4.61,0,0,1-3.56,4.52l-.09,0a5,5,0,0,1-1.08.12,4.64,4.64,0,0,1-4.66-4.64V405a4.66,4.66,0,0,1,4-4.62h.07a4.77,4.77,0,0,1,3.74,1.11A4.67,4.67,0,0,1,598,405Z"/><path class="cls-2" d="M598,606.29V659a4.72,4.72,0,0,1-5.33,4.62h-.07a4.67,4.67,0,0,1-4-4.62V606.27a4.63,4.63,0,0,1,1.75-3.63,4.71,4.71,0,0,1,4-.89l-.21,1.27.29-1.25A4.61,4.61,0,0,1,598,606.29Z"/><path class="cls-3" d="M616.06,403.74v52.72A4.61,4.61,0,0,1,612.5,461l-.09,0a4.43,4.43,0,0,1-1.08.13,4.67,4.67,0,0,1-2.91-1,4.62,4.62,0,0,1-1.75-3.63V403.75a4.67,4.67,0,0,1,4-4.62h.08a4.73,4.73,0,0,1,3.73,1.12A4.65,4.65,0,0,1,616.06,403.74Z"/><path class="cls-3" d="M616.06,605.05v52.7a4.67,4.67,0,0,1-4.69,4.67,4.46,4.46,0,0,1-.63,0h-.08a4.66,4.66,0,0,1-4-4.62V605a4.6,4.6,0,0,1,1.75-3.63,4.66,4.66,0,0,1,4-.89l-.22,1.26.29-1.25A4.61,4.61,0,0,1,616.06,605.05Z"/><path class="cls-4" d="M577.82,407.68v54.76A4.71,4.71,0,0,1,575,466.7l-.09,0a4.6,4.6,0,0,1-4.38-.34,4.64,4.64,0,0,1-2.14-3.92V407.7a4.64,4.64,0,0,1,3.49-4.52l.09,0a4.69,4.69,0,0,1,4,.85A4.61,4.61,0,0,1,577.82,407.68Z"/><path class="cls-4" d="M577.82,601.56v54.75A4.63,4.63,0,0,1,576,660a4.68,4.68,0,0,1-2.88,1,5,5,0,0,1-1.15-.14l-.07,0a4.64,4.64,0,0,1-3.5-4.52V601.52a4.64,4.64,0,0,1,2.14-3.92,4.58,4.58,0,0,1,4.39-.34l0,0A4.71,4.71,0,0,1,577.82,601.56Z"/><path class="cls-3" d="M558,412.07v58.59a4.69,4.69,0,0,1-1.93,3.76l-.08.06a4.58,4.58,0,0,1-4.81.4,4.64,4.64,0,0,1-2.57-4.17V412.1a4.66,4.66,0,0,1,3-4.35l.08,0a4.68,4.68,0,0,1,6.33,4.36Z"/><path class="cls-3" d="M558,593.34v58.57a4.66,4.66,0,0,1-2,3.84,4.72,4.72,0,0,1-2.65.83,4.49,4.49,0,0,1-1.66-.31l-.08,0a4.68,4.68,0,0,1-3-4.36v-58.6a4.65,4.65,0,0,1,7.4-3.76l.07.05A4.71,4.71,0,0,1,558,593.34Z"/><path class="cls-5" d="M538.88,418.35v65.73a4.62,4.62,0,0,1-1,2.92l-.06.08a4.62,4.62,0,0,1-3.61,1.75,4.8,4.8,0,0,1-1.57-.27,4.6,4.6,0,0,1-3.1-4.39V418.39a4.62,4.62,0,0,1,2.47-4.12l.06,0a4.65,4.65,0,0,1,4.61.13A4.6,4.6,0,0,1,538.88,418.35Z"/><path class="cls-5" d="M538.88,579.91v65.73a4.59,4.59,0,0,1-2.24,4,4.65,4.65,0,0,1-2.41.68,4.76,4.76,0,0,1-2.19-.54l-.07,0a4.62,4.62,0,0,1-2.47-4.12V579.82a4.65,4.65,0,0,1,8.27-2.93l.07.1A4.68,4.68,0,0,1,538.88,579.91Z"/><path class="cls-4" d="M501.2,438.18V625.81a4.61,4.61,0,0,1-2.8,4.28,4.84,4.84,0,0,1-1.88.39,4.59,4.59,0,0,1-3.15-1.26l-.07-.06a4.7,4.7,0,0,1-1.49-3.42V438.25a4.69,4.69,0,0,1,1.48-3.41l.08-.08a4.66,4.66,0,0,1,7.83,3.42Z"/><path class="cls-3" d="M482.6,453.49v157a4.6,4.6,0,0,1-3.16,4.41,4.88,4.88,0,0,1-1.54.26,4.61,4.61,0,0,1-3.64-1.8l-.07-.11a4.64,4.64,0,0,1-1-2.86V453.59a4.71,4.71,0,0,1,1-2.87l.07-.09a4.66,4.66,0,0,1,8.34,2.86Z"/><path class="cls-5" d="M464.53,476V588a4.6,4.6,0,0,1-3.63,4.55,5.12,5.12,0,0,1-1.09.12,4.54,4.54,0,0,1-4.12-2.61l-.06-.11a4.93,4.93,0,0,1-.49-2.1V476.12a4.89,4.89,0,0,1,.47-2.06l.08-.16a4.66,4.66,0,0,1,8.84,2.07Z"/><path class="cls-4" d="M446.44,500v64a2.09,2.09,0,0,1-1.86,2.1l-.27,0a2.09,2.09,0,0,1-2.05-1.6,134,134,0,0,1,0-65.06,2.12,2.12,0,0,1,4.18.52Z"/><path class="cls-2" d="M799.14,588.42q-15.57,0-27.41-6.62a46.78,46.78,0,0,1-18.46-18.57q-6.62-11.94-6.61-28t6.83-28a48.06,48.06,0,0,1,18.82-18.57q12-6.62,27.42-6.61a60.09,60.09,0,0,1,14.83,1.71A54.6,54.6,0,0,1,826.19,488l-2.05,17.83a77.58,77.58,0,0,0-11.44-4.2A48.92,48.92,0,0,0,799.58,500q-10.76,0-17.94,4.53A28.33,28.33,0,0,0,770.78,517a43.15,43.15,0,0,0-3.66,18.2,43.92,43.92,0,0,0,3.59,18.2,28,28,0,0,0,10.7,12.5q7.14,4.53,17.73,4.54a50,50,0,0,0,13.23-1.61,83.41,83.41,0,0,0,11.77-4.24l2.05,17.83a64.93,64.93,0,0,1-12.68,4.35A61.71,61.71,0,0,1,799.14,588.42Z"/><path class="cls-2" d="M839.05,586.37v-73.1h17l.44,7.75a35.23,35.23,0,0,1,7.82-6.14,20.79,20.79,0,0,1,11-3.07,16.9,16.9,0,0,1,3.22.29l-1.32,17.84a19.07,19.07,0,0,0-3.18-.59c-1-.09-2.08-.14-3.11-.14a17,17,0,0,0-8.4,2.12,12.47,12.47,0,0,0-5.34,5.19v49.85Z"/><path class="cls-2" d="M893.15,621.75l16.22-40.2L879,513.27h20.18l18.71,47.08,19-47.08H957L911.27,621.75Z"/><path class="cls-2" d="M965.8,621.75V513.27h14.62l3.51,12.13-5.41-1.9a43.52,43.52,0,0,1,11-8.29A30.86,30.86,0,0,1,1004,512.1q10.74,0,18.06,5.19a32.53,32.53,0,0,1,11.07,13.82,49.06,49.06,0,0,1,0,37.72A32.51,32.51,0,0,1,1022,582.64q-7.31,5.19-18.06,5.19-8.55,0-13.89-2.34A39.25,39.25,0,0,1,979.25,578l4.68-3.66v47.37Zm35.38-48.83a14.51,14.51,0,0,0,12.61-6.4q4.5-6.39,4.5-16.55t-4.5-16.6a14.54,14.54,0,0,0-12.61-6.35,17.06,17.06,0,0,0-10.3,2.92A16.88,16.88,0,0,0,985,538a38.53,38.53,0,0,0,0,23.9,16.88,16.88,0,0,0,5.92,8.08A17.06,17.06,0,0,0,1001.18,572.92Z"/><path class="cls-2" d="M1072.38,587.83q-6.87,0-11.18-2.81a17.17,17.17,0,0,1-6.36-7.2,21.31,21.31,0,0,1-2-9.14v-40.5h-10.38l1.61-14.91h8.77V497.19l18.13-1.9v18H1087v14.91h-16.08v33a34.18,34.18,0,0,0,.66,8,4,4,0,0,0,3,3.07,32.27,32.27,0,0,0,7.46.62h5l-1.61,14.91Z"/><path class="cls-2" d="M1132,587.83q-11.91,0-20.32-5.19a34.43,34.43,0,0,1-12.83-13.81,40.71,40.71,0,0,1-4.42-18.86,41.33,41.33,0,0,1,4.42-19A34.52,34.52,0,0,1,1111.71,517q8.4-5.24,20.32-5.23t20.32,5.23A34.59,34.59,0,0,1,1165.18,531a41.33,41.33,0,0,1,4.42,19,40.71,40.71,0,0,1-4.42,18.86,34.49,34.49,0,0,1-12.83,13.81Q1144,587.83,1132,587.83Zm0-14.91q9.13,0,14.07-6.4T1151,550q0-10.31-4.94-16.78T1132,526.72q-9.06,0-14,6.47T1113,550q0,10.15,5,16.55T1132,572.92Z"/><path class="cls-2" d="M1197.52,586.37,1168.72,484h19.45l20.47,72.66,22.8-72.66h13l23.68,70.76L1287.73,484h19.44l-30,102.34h-16.52l-22.8-68.27-22.66,68.27Z"/><path class="cls-2" d="M1315.8,502.16V484h18.13v18.13Zm0,84.21v-73.1h18.13v73.1Z"/><path class="cls-2" d="M1350.89,586.37v-73.1h17l.73,13.6-4.24-5.56a49.09,49.09,0,0,1,9.94-6.36,30,30,0,0,1,13.45-2.85q14,0,20.83,9.32t6.8,24.16v40.79h-18.13V547q0-10.23-3.4-15.13T1382.76,527a16.21,16.21,0,0,0-10.16,3,27.91,27.91,0,0,0-6.94,8.08l3.36-8.92v57.16Z"/><path class="cls-2" d="M1452.35,587.83a56,56,0,0,1-13-1.39,64.51,64.51,0,0,1-11.66-4l1.61-15.5a68.59,68.59,0,0,0,11.07,5.3,32.57,32.57,0,0,0,11.44,2q5.41,0,8.26-1.76a6,6,0,0,0,2.85-5.56,7.11,7.11,0,0,0-1.5-4.67,13.08,13.08,0,0,0-4.49-3.29c-2-1-4.49-2-7.46-3.15a64.17,64.17,0,0,1-11.44-5.4,20.87,20.87,0,0,1-7.16-7.06,19.7,19.7,0,0,1-2.45-10.2,19.28,19.28,0,0,1,3.29-11.11,21.74,21.74,0,0,1,9.35-7.53,35.26,35.26,0,0,1,14.41-2.7,46.24,46.24,0,0,1,12.46,1.54,45.73,45.73,0,0,1,10.2,4.16l-1.61,15.5a60.62,60.62,0,0,0-9.87-5.67,26.38,26.38,0,0,0-10.89-2.23q-4.68,0-7.24,1.91a6.32,6.32,0,0,0-2.55,5.4,6.92,6.92,0,0,0,3.57,6.36A83.32,83.32,0,0,0,1461,544a68,68,0,0,1,8.88,4.1,27.23,27.23,0,0,1,6.25,4.67,16.62,16.62,0,0,1,3.7,5.82,21.52,21.52,0,0,1,1.2,7.49,20.43,20.43,0,0,1-3.32,11.8,20.65,20.65,0,0,1-9.73,7.42A42,42,0,0,1,1452.35,587.83Z"/></svg>