<svg xmlns="http://www.w3.org/2000/svg" version="1.1" xmlns:xlink="http://www.w3.org/1999/xlink" xmlns:svgjs="http://svgjs.com/svgjs" width="1440" height="560" preserveAspectRatio="none" viewBox="0 0 1440 560"><g mask="url(&quot;#SvgjsMask1011&quot;)" fill="none"><rect width="1440" height="560" x="0" y="0" fill="#0e2a47"></rect><path d="M 0,124 C 57.6,137 172.8,203.6 288,189 C 403.2,174.4 460.8,47.4 576,51 C 691.2,54.6 748.8,195.2 864,207 C 979.2,218.8 1036.8,95.6 1152,110 C 1267.2,124.4 1382.4,245.2 1440,279L1440 560L0 560z" fill="#184a7e"></path><path d="M 0,500 C 96,469.4 288,359.8 480,347 C 672,334.2 768,439 960,436 C 1152,433 1344,352.8 1440,332L1440 560L0 560z" fill="#2264ab"></path></g><defs><mask id="SvgjsMask1011"><rect width="1440" height="560" fill="#ffffff"></rect></mask></defs></svg>