<svg width="146" height="48" viewBox="0 0 146 48" fill="none" xmlns="http://www.w3.org/2000/svg">
<path d="M141.241 29.2611L145.291 31.9666C143.976 33.9066 140.832 37.2351 135.396 37.2351C128.646 37.2351 123.619 32.0023 123.619 25.3454C123.619 18.2617 128.699 13.456 134.828 13.456C140.992 13.456 144.012 18.3683 144.989 21.0203L145.522 22.3731L129.641 28.9586C130.849 31.3437 132.732 32.554 135.396 32.554C138.061 32.554 139.908 31.2369 141.241 29.2611V29.2611ZM128.788 24.972L139.393 20.5577C138.807 19.0806 137.067 18.0306 134.988 18.0306C132.341 18.0306 128.664 20.38 128.788 24.972Z" fill="#9CA2AE"/>
<path d="M115.963 1.33512H121.079V36.1494H115.963V1.33484V1.33512Z" fill="#9CA2AE"/>
<path d="M107.898 14.3814H112.837V35.5263C112.837 44.3009 107.667 47.914 101.556 47.914C95.8012 47.914 92.3374 44.034 91.0405 40.8837L95.5702 38.9969C96.3872 40.9369 98.359 43.2332 101.556 43.2332C105.482 43.2332 107.898 40.7946 107.898 36.2383V34.5297H107.721C106.548 35.9534 104.31 37.2349 101.468 37.2349C95.5346 37.2349 90.0986 32.0554 90.0986 25.3812C90.0986 18.6709 95.5346 13.4383 101.468 13.4383C104.292 13.4383 106.548 14.702 107.721 16.0903H107.898V14.3817V14.3814ZM108.253 25.3812C108.253 21.1806 105.465 18.1192 101.912 18.1192C98.3234 18.1192 95.3036 21.1806 95.3036 25.3812C95.3036 29.528 98.3234 32.536 101.912 32.536C105.465 32.554 108.254 29.528 108.254 25.3812H108.253Z" fill="#9CA2AE"/>
<path d="M62.0136 25.292C62.0136 32.1445 56.6846 37.1814 50.1474 37.1814C43.6105 37.1814 38.2812 32.1268 38.2812 25.292C38.2812 18.404 43.6105 13.3848 50.1474 13.3848C56.6846 13.3848 62.0136 18.404 62.0136 25.292ZM56.8266 25.292C56.8266 21.0205 53.7355 18.0834 50.1474 18.0834C46.5593 18.0834 43.4682 21.0205 43.4682 25.292C43.4682 29.528 46.5593 32.5005 50.1474 32.5005C53.7358 32.5005 56.8266 29.528 56.8266 25.292Z" fill="#9CA2AE"/>
<path d="M87.9316 25.3454C87.9316 32.198 82.6023 37.2348 76.0654 37.2348C69.5282 37.2348 64.1992 32.1977 64.1992 25.3454C64.1992 18.4574 69.5282 13.456 76.0654 13.456C82.6023 13.456 87.9316 18.4397 87.9316 25.3454V25.3454ZM82.7267 25.3454C82.7267 21.074 79.6358 18.1369 76.0474 18.1369C72.4593 18.1369 69.3682 21.074 69.3682 25.3454C69.3682 29.5814 72.4593 32.554 76.0474 32.554C79.6535 32.554 82.7267 29.5637 82.7267 25.3454Z" fill="#9CA2AE"/>
<path d="M18.7764 32.02C11.3332 32.02 5.50693 26.004 5.50693 18.5463C5.50693 11.0889 11.3332 5.07286 18.7764 5.07286C22.7911 5.07286 25.7219 6.65686 27.8891 8.686L31.4598 5.10857C28.44 2.20743 24.4076 0 18.7764 0C8.58005 0.000285714 0 8.33028 0 18.5463C0 28.7629 8.58005 37.0926 18.7764 37.0926C24.2833 37.0926 28.44 35.2771 31.6908 31.8954C35.0302 28.5491 36.0605 23.8503 36.0605 20.0414C36.0605 18.8489 35.9185 17.6209 35.7585 16.7131H18.7764V21.6611H30.8735C30.5182 24.7583 29.5413 26.8763 28.1024 28.3177C26.3615 30.08 23.6083 32.02 18.7764 32.02V32.02Z" fill="#9CA2AE"/>
</svg>
