<svg width="216" height="34" viewBox="0 0 216 34" fill="none" xmlns="http://www.w3.org/2000/svg">
<path d="M178.353 1.02599L178.767 25.272H178.56L171.54 1.035H159.993V31.563H167.625L167.211 6.49799H167.418L174.942 31.563H185.985V1.035L178.353 1.02599ZM33.003 1.02599L27.234 31.878H35.586L39.816 3.816H40.023L44.154 31.878H52.398L46.728 1.035L33.003 1.02599ZM79.632 1.02599L75.816 24.552H75.609L71.793 1.035H59.22L58.599 31.878H66.339L66.546 4.131H66.645L71.802 31.878H79.641L84.798 4.131H85.005L85.212 31.878H92.952L92.232 1.035L79.632 1.02599ZM14.238 23.112C14.4726 23.8456 14.5068 24.6287 14.337 25.38C14.13 26.406 13.41 27.441 11.349 27.441C9.387 27.441 8.253 26.307 8.253 24.651V21.663H0V24.039C0 30.951 5.463 33.012 11.25 33.012C16.812 33.012 21.456 31.05 22.176 25.992C22.59 23.31 22.284 21.564 22.176 20.943C20.736 14.445 8.973 12.582 8.145 8.973C8.042 8.42883 8.042 7.87016 8.145 7.32599C8.352 6.29099 9.081 5.256 10.935 5.256C12.789 5.256 13.815 6.399 13.815 8.046V9.89999H21.555V7.74C21.555 1.035 15.471 0 11.142 0C5.67 0 1.134 1.854 0.306 6.813C0.0351415 8.17794 0.0720367 9.5861 0.414 10.935C1.647 17.325 12.69 19.188 14.238 23.103V23.112ZM114.606 23.103C114.912 23.823 114.804 24.759 114.705 25.38C114.498 26.406 113.778 27.441 111.717 27.441C109.755 27.441 108.621 26.307 108.621 24.651V21.663H100.368V24.039C100.368 30.843 105.732 32.904 111.51 32.904C117.081 32.904 121.617 31.05 122.337 25.893C122.751 23.211 122.445 21.564 122.337 20.835C121.104 14.445 109.44 12.483 108.621 8.973C108.517 8.42891 108.517 7.87008 108.621 7.32599C108.828 6.29099 109.548 5.256 111.411 5.256C113.157 5.256 114.291 6.399 114.291 8.046V9.89999H121.923V7.74C121.923 1.035 115.938 0 111.609 0C106.146 0 101.709 1.755 100.881 6.813C100.674 8.154 100.674 9.38699 100.989 10.935C102.222 17.325 113.049 19.08 114.606 23.103V23.103ZM140.598 27.234C142.758 27.234 143.388 25.794 143.586 24.966C143.694 24.651 143.694 24.138 143.694 23.832V1.02599H151.524V23.202C151.524 23.823 151.524 24.957 151.434 25.272C150.912 31.041 146.376 32.895 140.697 32.895C135.027 32.895 130.491 31.041 129.969 25.263C129.969 24.957 129.87 23.823 129.87 23.202V1.02599H137.7V23.823C137.7 24.237 137.7 24.642 137.808 24.957C137.808 25.776 138.438 27.225 140.598 27.225V27.234ZM204.966 26.919C207.234 26.919 207.954 25.479 208.161 24.642C208.26 24.336 208.26 23.823 208.26 23.508V19.071H205.065V14.535H216V22.788C216 23.409 216 23.823 215.901 24.858C215.379 30.528 210.528 32.481 205.065 32.481C199.602 32.481 194.751 30.528 194.238 24.849C194.13 23.823 194.13 23.409 194.13 22.788V9.79199C194.13 9.27899 194.238 8.244 194.238 7.722C194.958 1.953 199.602 0.0989971 205.065 0.0989971C210.528 0.0989971 215.28 1.95299 215.892 7.73099C216 8.65799 216 9.79199 216 9.79199V10.827H208.26V9.07199C208.26 9.07199 208.26 8.352 208.161 7.938C208.053 7.218 207.441 5.66999 205.065 5.66999C202.797 5.66999 202.185 7.11 201.969 7.938C201.87 8.343 201.87 8.865 201.87 9.378V23.508C201.87 23.922 201.87 24.336 201.969 24.642C201.969 25.47 202.797 26.919 204.966 26.919" fill="#9CA2AE"/>
</svg>
