<svg width="128" height="41" viewBox="0 0 128 41" fill="none" xmlns="http://www.w3.org/2000/svg">
<path d="M0 36.8965L2.33273 31.419C4.85355 33.3209 8.20199 34.31 11.5132 34.31C13.9588 34.31 15.5015 33.3589 15.5015 31.9137C15.4639 27.8817 0.865231 31.0386 0.752375 20.9206C0.714756 15.7857 5.23011 11.8298 11.626 11.8298C15.4263 11.8298 19.2265 12.7806 21.9354 14.9487L19.7531 20.5403C17.2699 18.9426 14.1848 17.8017 11.2498 17.8017C9.25568 17.8017 7.93902 18.7525 7.93902 19.9698C7.97664 23.9258 22.6881 21.7577 22.8386 31.419C22.8386 36.6683 18.4365 40.358 12.1154 40.358C7.48723 40.358 3.23558 39.2548 0 36.8965V36.8965ZM89.5108 29.441L95.9447 33.0546C93.5367 37.4289 88.9465 40.358 83.6411 40.358C75.8526 40.358 69.5315 33.9678 69.5315 26.0939C69.5315 18.2201 75.8526 11.8298 83.6411 11.8298C88.9089 11.8298 93.5367 14.7966 95.9447 19.1332L89.5108 22.7465C88.3442 20.6924 86.162 19.2853 83.6411 19.2853C79.9162 19.2853 76.9063 22.3281 76.9063 26.0939C76.9063 29.8597 79.9162 32.9025 83.6411 32.9025C86.162 32.9025 88.3442 31.495 89.5104 29.441H89.5108ZM26.0742 0H34.1261V39.8252H26.0742V0V0ZM99.105 0H107.157V23.393L116.262 12.4002H126.12L114.87 25.6372L127.023 39.8252H116.714L107.157 27.8817V39.8252H99.105V0ZM58.056 29.5174V22.7845C56.8894 20.8065 54.4815 19.2853 51.7726 19.2853C48.0472 19.2853 45.0377 22.3281 45.0377 26.0939C45.0377 29.8597 48.0472 32.9025 51.7726 32.9025C54.4815 32.9025 56.8894 31.457 58.056 29.517V29.5174ZM58.056 12.4006H66.1079V39.7876H58.056V36.5546C56.739 38.7988 53.4654 40.3584 50.0417 40.3584C42.9679 40.3584 37.3996 33.9681 37.3996 26.0562C37.3996 18.1444 42.9679 11.8302 50.0417 11.8302C53.4654 11.8302 56.739 13.3898 58.056 15.634V12.3999V12.4006Z" fill="#9CA2AE"/>
</svg>
