<svg width="94" height="31" viewBox="0 0 94 31" fill="none" xmlns="http://www.w3.org/2000/svg">
<path d="M0 0V19.0689C0 26.2496 5.0995 30.9956 11.75 30.9956C14.9852 30.9956 17.8678 29.7803 19.9515 27.6496V30.4803H24.5575V0H19.9045V18.7997C19.9045 23.6342 16.5753 26.8996 12.2788 26.8996C7.93125 26.8996 4.65692 23.7188 4.65692 18.7997V0.00384765H0V0ZM29.14 0V30.4803H33.5658V27.6919C35.6064 29.738 38.4891 30.9995 41.6342 30.9995C43.1908 31.0137 44.7349 30.7247 46.177 30.1491C47.6191 29.5735 48.9307 28.7228 50.0358 27.6462C51.141 26.5695 52.0177 25.2884 52.6153 23.8768C53.2129 22.4653 53.5195 20.9514 53.5173 19.4228C53.5246 17.8905 53.2221 16.372 52.6273 14.9554C52.0324 13.5389 51.1571 12.2523 50.0521 11.1704C48.9471 10.0886 47.6343 9.23285 46.19 8.65294C44.7457 8.07303 43.1984 7.78046 41.6381 7.79218C40.1431 7.79033 38.6628 8.08237 37.2845 8.6511C35.9062 9.21983 34.6578 10.0537 33.6128 11.1037V0.00384765H29.1361L29.14 0ZM67.7936 7.83834C61.1862 7.83834 56.1807 13.1075 56.1807 19.3766C56.1807 25.9919 61.4055 30.9533 68.1892 30.9533C72.3134 30.9533 75.6817 29.1726 77.9417 26.2111L74.7065 23.8612C73.0223 26.0803 70.8055 27.1188 68.1892 27.1188C64.3783 27.1188 61.3233 24.4265 60.7005 20.8112H79.0971V19.3766C79.0971 12.7613 74.3109 7.83834 67.7936 7.83834V7.83834ZM92.449 8.09987C89.9658 8.09987 88.1485 9.23062 87.0401 11.0152V8.27294H82.6103V30.4803H87.0832V17.8459C87.0832 14.4075 89.2138 12.1921 92.1396 12.1921H94V8.09602H92.449V8.09987ZM67.6996 11.669C71.0288 11.669 73.8253 13.9305 74.5773 17.3228H60.7867C61.5818 13.9305 64.3743 11.669 67.6996 11.669ZM41.3326 11.7152C45.5861 11.7152 49.0876 15.1113 49.0876 19.4228C49.0959 21.4524 48.2842 23.4024 46.8304 24.8452C45.3766 26.2879 43.3994 27.1056 41.3326 27.1188C40.3043 27.1208 39.2857 26.923 38.3357 26.5365C37.3856 26.1501 36.5229 25.5828 35.7972 24.8674C35.0715 24.1519 34.4973 23.3024 34.1076 22.368C33.7179 21.4335 33.5205 20.4325 33.5267 19.4228C33.5194 18.4125 33.7159 17.4108 34.1049 16.4755C34.4938 15.5402 35.0675 14.6897 35.7928 13.9732C36.5181 13.2567 37.3807 12.6882 38.3308 12.3007C39.281 11.9131 40.2998 11.7142 41.3287 11.7152H41.3326Z" fill="#9DA3AF"/>
</svg>
